<?xml version="1.0" encoding="UTF-8" standalone="no"?>
<!DOCTYPE svg PUBLIC "-//W3C//DTD SVG 1.1//EN" "http://www.w3.org/Graphics/SVG/1.1/DTD/svg11.dtd">
<svg width="100%" height="100%" viewBox="0 0 253 253" version="1.1" xmlns="http://www.w3.org/2000/svg" xmlns:xlink="http://www.w3.org/1999/xlink" xml:space="preserve" xmlns:serif="http://www.serif.com/" style="fill-rule:evenodd;clip-rule:evenodd;stroke-linejoin:round;stroke-miterlimit:2;">
    <g transform="matrix(1,0,0,1,-1338,-1707)">
        <g transform="matrix(4.16667,0,0,4.16667,0,0)">
            <path d="M373.073,459.73C371.165,459.708 369.576,461.19 369.466,463.095C369.324,465.531 366.837,467.111 364.571,466.203C362.8,465.494 360.784,466.302 359.992,468.038C358.981,470.259 356.09,470.833 354.306,469.169C352.91,467.868 350.738,467.893 349.373,469.226C347.627,470.931 344.724,470.423 343.661,468.226C342.83,466.509 340.796,465.747 339.041,466.497C336.798,467.456 334.274,465.934 334.076,463.501C333.922,461.6 332.3,460.156 330.394,460.221C327.955,460.304 326.151,457.973 326.846,455.634C327.389,453.805 326.398,451.871 324.597,451.243C322.292,450.441 321.453,447.616 322.945,445.685C324.112,444.176 323.888,442.016 322.434,440.78C320.575,439.199 320.814,436.26 322.902,434.999C324.536,434.014 325.107,431.918 324.198,430.24L324.197,430.24C323.036,428.094 324.319,425.441 326.723,425.02C328.602,424.691 329.891,422.943 329.649,421.049C329.341,418.629 331.496,416.618 333.89,417.094C335.761,417.466 337.595,416.301 338.054,414.45C338.641,412.08 341.376,410.985 343.436,412.292C345.047,413.316 347.177,412.892 348.274,411.33C349.677,409.334 352.624,409.3 354.072,411.264C355.205,412.799 357.344,413.174 358.931,412.115C360.96,410.759 363.721,411.792 364.361,414.147C364.863,415.988 366.723,417.11 368.585,416.695C370.967,416.164 373.168,418.125 372.915,420.552C372.718,422.45 374.046,424.168 375.933,424.453C378.345,424.82 379.69,427.443 378.577,429.615C377.707,431.313 378.325,433.395 379.982,434.343C382.099,435.556 382.404,438.487 380.583,440.111C379.158,441.379 378.982,443.544 380.184,445.027C381.721,446.922 380.946,449.766 378.661,450.622C376.875,451.291 375.929,453.246 376.514,455.063C377.262,457.385 375.513,459.757 373.073,459.73Z" style="fill:rgb(75,91,169);fill-rule:nonzero;"/>
            <path d="M347.036,439.524L347.036,455.342C347.036,455.57 347.221,455.754 347.448,455.754L353.322,455.754C353.55,455.754 353.734,455.57 353.734,455.342L353.734,439.266L357.993,439.266C358.207,439.266 358.386,439.102 358.403,438.889L358.813,434.045C358.833,433.805 358.644,433.598 358.402,433.598L353.734,433.598L353.734,430.161C353.734,429.357 354.387,428.703 355.192,428.703L358.475,428.703C358.702,428.703 358.887,428.519 358.887,428.291L358.887,423.448C358.887,423.22 358.702,423.035 358.475,423.035L352.929,423.035C349.674,423.035 347.036,425.674 347.036,428.929L347.036,433.598L344.099,433.598C343.871,433.598 343.687,433.783 343.687,434.01L343.687,438.854C343.687,439.081 343.871,439.266 344.099,439.266L347.036,439.266L347.036,439.524Z" style="fill:white;"/>
        </g>
    </g>
</svg>
