<?xml version="1.0" encoding="UTF-8" standalone="no"?>
<!DOCTYPE svg PUBLIC "-//W3C//DTD SVG 1.1//EN" "http://www.w3.org/Graphics/SVG/1.1/DTD/svg11.dtd">
<svg width="100%" height="100%" viewBox="0 0 254 253" version="1.1" xmlns="http://www.w3.org/2000/svg" xmlns:xlink="http://www.w3.org/1999/xlink" xml:space="preserve" xmlns:serif="http://www.serif.com/" style="fill-rule:evenodd;clip-rule:evenodd;stroke-linejoin:round;stroke-miterlimit:2;">
    <g transform="matrix(1,0,0,1,-1678,-1707)">
        <g transform="matrix(4.16667,0,0,4.16667,0,0)">
            <path d="M456.95,440.62C456.95,453.738 446.316,464.37 433.2,464.37C420.083,464.37 409.45,453.738 409.45,440.62C409.45,427.504 420.083,416.87 433.2,416.87C446.316,416.87 456.95,427.504 456.95,440.62Z" style="fill:white;fill-rule:nonzero;"/>
            <path d="M447.231,446.465C447.231,450.364 444.068,453.525 440.169,453.525L426.602,453.525C422.702,453.525 419.541,450.364 419.541,446.465L419.541,432.896C419.541,428.996 422.702,425.835 426.602,425.835L440.169,425.835C444.068,425.835 447.231,428.996 447.231,432.896L447.231,446.465ZM450.449,432.896C450.449,427.218 445.847,422.617 440.169,422.617L426.602,422.617C420.924,422.617 416.321,427.218 416.321,432.896L416.321,446.465C416.321,452.142 420.924,456.744 426.602,456.744L440.169,456.744C445.847,456.744 450.449,452.142 450.449,446.465L450.449,432.896ZM433.443,445.299C430.467,445.299 428.044,442.877 428.044,439.901C428.044,436.923 430.467,434.501 433.443,434.501C436.42,434.501 438.842,436.923 438.842,439.901C438.842,442.877 436.42,445.299 433.443,445.299ZM433.443,431.472C428.796,431.472 425.015,435.253 425.015,439.901C425.015,444.548 428.796,448.328 433.443,448.328C438.091,448.328 441.871,444.548 441.871,439.901C441.871,435.253 438.091,431.472 433.443,431.472ZM442.363,428.9C441.255,428.9 440.357,429.798 440.357,430.906C440.357,432.014 441.255,432.912 442.363,432.912C443.472,432.912 444.37,432.014 444.37,430.906C444.37,429.798 443.472,428.9 442.363,428.9ZM454.773,459.73C452.865,459.708 451.276,461.19 451.166,463.095C451.024,465.531 448.536,467.111 446.272,466.203C444.5,465.494 442.483,466.302 441.692,468.038C440.681,470.259 437.79,470.833 436.005,469.169C434.609,467.868 432.439,467.893 431.073,469.226C429.327,470.931 426.424,470.423 425.361,468.226C424.53,466.509 422.496,465.747 420.741,466.497C418.498,467.456 415.975,465.934 415.776,463.501C415.622,461.6 414,460.156 412.093,460.221C409.654,460.304 407.852,457.973 408.546,455.634C409.089,453.805 408.099,451.871 406.297,451.243C403.992,450.441 403.153,447.616 404.646,445.685C405.813,444.176 405.587,442.016 404.134,440.78C402.275,439.199 402.514,436.26 404.603,434.999C406.236,434.014 406.807,431.918 405.898,430.24C404.735,428.094 406.02,425.441 408.423,425.02C410.302,424.691 411.591,422.943 411.35,421.049C411.041,418.629 413.196,416.618 415.59,417.094C417.461,417.466 419.295,416.301 419.753,414.45C420.34,412.08 423.076,410.985 425.136,412.292C426.747,413.316 428.877,412.892 429.974,411.33C431.377,409.334 434.324,409.3 435.773,411.264C436.904,412.799 439.044,413.174 440.631,412.115C442.66,410.759 445.421,411.792 446.062,414.147C446.564,415.988 448.423,417.11 450.285,416.695C452.667,416.164 454.867,418.125 454.615,420.552C454.417,422.45 455.746,424.168 457.633,424.453C460.045,424.82 461.39,427.443 460.277,429.615C459.407,431.313 460.025,433.395 461.682,434.343C463.799,435.556 464.105,438.487 462.282,440.111C460.858,441.379 460.683,443.544 461.884,445.027C463.421,446.922 462.647,449.766 460.361,450.622C458.574,451.291 457.629,453.246 458.214,455.063C458.962,457.385 457.213,459.757 454.773,459.73Z" style="fill:rgb(75,91,169);fill-rule:nonzero;"/>
        </g>
    </g>
</svg>
