<?xml version="1.0" encoding="UTF-8" standalone="no"?>
<!DOCTYPE svg PUBLIC "-//W3C//DTD SVG 1.1//EN" "http://www.w3.org/Graphics/SVG/1.1/DTD/svg11.dtd">
<svg width="100%" height="100%" viewBox="0 0 253 253" version="1.1" xmlns="http://www.w3.org/2000/svg" xmlns:xlink="http://www.w3.org/1999/xlink" xml:space="preserve" xmlns:serif="http://www.serif.com/" style="fill-rule:evenodd;clip-rule:evenodd;stroke-linejoin:round;stroke-miterlimit:2;">
    <g transform="matrix(1,0,0,1,-1338,-2245)">
        <g transform="matrix(4.16667,0,0,4.16667,0,0)">
            <path d="M373.073,588.93C371.165,588.909 369.576,590.39 369.466,592.294C369.324,594.731 366.837,596.311 364.571,595.404C362.8,594.695 360.784,595.502 359.992,597.239C358.981,599.458 356.09,600.034 354.306,598.369C352.91,597.068 350.738,597.093 349.373,598.426C347.627,600.131 344.724,599.622 343.661,597.426C342.83,595.708 340.796,594.948 339.041,595.698C336.798,596.657 334.274,595.134 334.076,592.701C333.922,590.8 332.3,589.355 330.394,589.421C327.955,589.504 326.151,587.173 326.846,584.834C327.389,583.004 326.398,581.072 324.597,580.444C322.292,579.641 321.453,576.816 322.945,574.885C324.112,573.375 323.888,571.215 322.434,569.979C320.575,568.398 320.814,565.46 322.902,564.2C324.536,563.213 325.107,561.117 324.198,559.44L324.197,559.44C323.036,557.294 324.319,554.641 326.723,554.22C328.602,553.891 329.891,552.142 329.649,550.249C329.341,547.829 331.496,545.819 333.89,546.294C335.761,546.666 337.595,545.501 338.054,543.65C338.641,541.281 341.376,540.185 343.436,541.492C345.047,542.515 347.177,542.092 348.274,540.531C349.677,538.534 352.624,538.5 354.072,540.464C355.205,541.999 357.344,542.374 358.931,541.315C360.96,539.959 363.721,540.992 364.361,543.347C364.863,545.188 366.723,546.31 368.585,545.895C370.967,545.365 373.168,547.325 372.915,549.752C372.718,551.65 374.046,553.367 375.933,553.654C378.345,554.02 379.69,556.643 378.577,558.815C377.707,560.513 378.325,562.595 379.982,563.543C382.099,564.755 382.404,567.687 380.583,569.31C379.158,570.579 378.982,572.744 380.184,574.227C381.721,576.122 380.946,578.966 378.661,579.822C376.875,580.492 375.929,582.447 376.514,584.263C377.262,586.585 375.513,588.957 373.073,588.93Z" style="fill:rgb(75,91,169);fill-rule:nonzero;"/>
            <path d="M353.397,578.204C351.448,578.054 350.629,577.087 349.101,576.159C348.42,579.733 347.616,583.186 345.716,585.541C345.163,586.227 344.046,585.882 344.002,585.002C343.715,579.31 345.681,574.79 346.647,570.023C344.813,566.935 346.867,560.719 350.737,562.25C355.499,564.134 346.614,573.734 352.579,574.933C358.807,576.184 361.349,564.127 357.486,560.205C351.906,554.542 341.244,560.076 342.556,568.182C342.804,569.723 344.097,570.429 343.932,571.951C343.83,572.898 342.855,573.443 341.992,573.039C339.523,571.885 338.757,569.356 338.874,566.137C339.095,559.991 344.397,555.687 349.715,555.091C356.44,554.338 362.753,557.561 363.624,563.887C364.605,571.027 360.588,578.76 353.397,578.204Z" style="fill:white;fill-rule:nonzero;"/>
        </g>
    </g>
</svg>
