<?xml version="1.0" encoding="UTF-8" standalone="no"?>
<!-- Created with Inkscape (http://www.inkscape.org/) -->

<svg
   xmlns:dc="http://purl.org/dc/elements/1.1/"
   xmlns:cc="http://creativecommons.org/ns#"
   xmlns:rdf="http://www.w3.org/1999/02/22-rdf-syntax-ns#"
   xmlns:svg="http://www.w3.org/2000/svg"
   xmlns="http://www.w3.org/2000/svg"
   version="1.1"
   width="305"
   height="148"
   id="svg3153">
  <metadata
     id="metadata3159">
    <rdf:RDF>
      <cc:Work
         rdf:about="">
        <dc:format>image/svg+xml</dc:format>
        <dc:type
           rdf:resource="http://purl.org/dc/dcmitype/StillImage" />
        <dc:title></dc:title>
      </cc:Work>
    </rdf:RDF>
  </metadata>
  <defs
     id="defs3157" />
  <g
     transform="translate(-1.7732558,-3.5465116)"
     id="g3163">
    <path
       d="m 52.5,140.9671 c -9.394668,-0.81747 -14.27061,-3.52998 -20.990971,-11.67739 -7.538746,-9.13957 -6.948543,-11.1084 0.932398,-3.11034 3.542785,3.59544 7.998293,7.27594 9.901129,8.17889 4.242797,2.01334 14.614718,2.10389 20.026277,0.17483 2.127858,-0.75851 4.377858,-1.2277 5,-1.04264 C 71.761591,134.79713 75,134.84254 75,133.59744 c 0,-0.7439 -0.671916,-1.91019 -1.493147,-2.59175 -1.104873,-0.91697 -1.323425,-2.31401 -0.840463,-5.37245 L 73.319074,121.5 70.415679,125 c -3.904252,4.70652 -5.228501,5.77932 -9.915679,8.03289 -8.850678,4.25537 -19.601611,1.09692 -27.97781,-8.21943 -4.890801,-5.43975 -5.366845,-6.86757 -2.956612,-8.86788 1.299003,-1.07808 2.072663,-0.99978 4.543662,0.45988 5.315334,3.13984 8.866626,3.69983 12.507315,1.97221 6.734204,-3.19559 5.775105,-9.07142 -3.251349,-19.919076 C 32.096849,84.9167 28.411815,79.770319 24.419694,72 20.794645,64.944154 20.556399,63.92722 20.396669,54.828025 20.20026,43.6393 21.635249,40.095314 27.493155,37.301873 29.42192,36.382109 31,35.239959 31,34.763761 c 0,-2.80093 24.260751,-6.390953 27.233878,-4.029976 0.696367,0.552989 3.033578,1.324501 5.193802,1.714471 2.226492,0.401933 5.812312,2.25335 8.278892,4.274526 l 4.351211,3.565491 8.221108,-3.873795 c 7.620729,-3.590894 8.990468,-3.901078 18.756079,-4.2474 8.06668,-0.286072 11.434,0.002 14.37213,1.229658 5.34935,2.235104 6.31646,2.070709 11.1582,-1.896736 2.34921,-1.925 4.65757,-3.5 5.12969,-3.5 0.47212,0 4.44639,5.397626 8.83171,11.994725 5.35833,8.060872 8.57563,11.996455 9.80985,12 2.87317,0.0083 14.02516,-11.361865 16.65865,-16.984484 2.57745,-5.502952 3.38472,-5.976011 5.2101,-3.053109 1.1427,1.829752 2.04207,1.917917 13.81852,1.354616 11.90589,-0.569493 13.04647,-0.452583 20.81058,2.133102 9.26298,3.084857 16.76252,8.372277 20.68241,14.581771 C 230.89636,52.21198 232.36905,54 232.78946,54 c 0.4204,0 3.11905,-1.769274 5.99699,-3.93172 8.28078,-6.22206 15.1071,-8.359227 24.89228,-7.793211 7.02177,0.406168 9.07295,0.974539 14.5,4.01787 6.18737,3.469693 9.85085,6.719091 13.16791,11.679567 1.751,2.618526 2.27584,6.530244 0.74961,5.586981 -0.49706,-0.3072 0.0424,1.803742 1.19871,4.690983 1.67477,4.18169 2.11288,7.48711 2.15374,16.24953 0.0475,10.185798 -0.15746,11.396425 -2.76914,16.35577 -9.94298,18.88083 -32.54096,25.54101 -49.78009,14.67143 -5.75254,-3.62708 -6.63607,-3.77207 -5.06188,-0.83067 0.75254,1.40614 0.53089,2.4778 -0.89675,4.33564 -1.043,1.35731 -1.90637,3.19293 -1.9186,4.07916 -0.0319,2.3142 -4.29908,1.28734 -7.11757,-1.71281 C 226.66535,120.07933 224.82981,119 223.82569,119 222.82156,119 222,118.38693 222,117.63762 c 0,-1.91883 -19.67713,-21.069324 -22.04724,-21.457171 -3.38975,-0.5547 -2.16514,1.401261 5.29724,8.460871 10.03657,9.49484 15.75,15.47945 15.75,16.49752 0,0.47364 -0.62011,0.86116 -1.37803,0.86116 -0.75791,0 -2.02416,0.97313 -2.81388,2.16252 l -1.43586,2.16252 -3.5502,-2.41252 C 209.86942,122.58563 206.77787,119.8125 204.95192,117.75 201.91944,114.32467 198,112.71392 198,114.89301 c 0,2.35043 -7.91558,1.5074 -18.75,-1.99692 L 176,111.8449 176,93.863431 C 176,82.130432 175.65251,76.09673 175,76.5 c -0.55,0.339919 -1,1.491476 -1,2.559017 0,1.178191 -0.68774,1.944797 -1.75,1.950689 -0.9625,0.0053 -3.72583,1.580338 -6.14073,3.5 C 163.69437,86.429368 161.33187,88 160.85927,88 160.38667,88 160,85.352484 160,82.116631 c 0,-5.120911 -0.27,-5.953976 -2.08345,-6.428202 -2.05907,-0.538459 -2.07391,-0.402348 -1.26841,11.633369 0.44827,6.698011 0.82332,14.411632 0.83345,17.141372 l 0.0184,4.96317 -12.30058,3.90292 c -6.76532,2.1466 -12.50865,3.69484 -12.76297,3.44053 -0.25431,-0.25432 1.61755,-10.00745 4.1597,-21.673636 2.54215,-11.666184 4.3112,-21.522141 3.93121,-21.902127 -1.22648,-1.226484 -3.22409,2.664699 -4.53205,8.828074 -1.09919,5.179642 -1.63606,6.097181 -3.88537,6.64031 -1.43547,0.346616 -4.48165,2.336043 -6.7693,4.42095 -3.84663,3.505718 -8.08336,5.307909 -14.34064,6.100122 -2.25873,0.285971 -2.47043,0.702541 -2.1936,4.316517 0.16852,2.2 0.98686,6.65898 1.81854,9.90885 2.21509,8.65569 1.54425,10.16832 -4.85845,10.95508 -18.799843,2.3101 -21.269661,3.00062 -24.697903,6.90517 -1.79854,2.04843 -3.614597,3.51148 -4.035683,3.25124 -0.421086,-0.26025 -1.612189,0.46228 -2.646897,1.60562 C 70.244561,140.70221 64.375461,142.00044 52.5,140.9671 z M 78.395513,98.653948 C 77.640332,78.581824 77.728104,79.492461 76.212024,76 c -1.007417,-2.320699 -1.089798,-2.195187 -1.148638,1.75 -0.07407,4.966325 -1.057846,5.25434 -5.742477,1.681198 -3.62202,-2.762649 -6.60891,-2.889796 -7.10717,-0.302541 C 61.849356,81.020748 71.562125,92 73.600343,92 74.632776,92 75,93.465 75,97.583777 l 0,5.583773 -4.942974,-7.333773 C 65.602527,89.22474 52,75.60025 52,77.747596 c 0,0.941895 6.488112,8.756973 12.392971,14.927613 2.013027,2.103635 5.05319,6.623674 6.755919,10.044531 2.678398,5.38102 3.037713,7.02374 2.664598,12.18201 l -0.431272,5.96228 2.848155,-2.02807 2.848155,-2.02806 -0.683013,-18.153952 z M 105.58158,116.75 c -0.35842,-1.2375 -1.11202,-4.93861 -1.67465,-8.22469 -1.10665,-6.4634 -1.89785,-8.29173 -1.92224,-4.44198 -0.0125,1.96472 -0.20819,2.13615 -1.04667,0.91667 -0.75745,-1.10162 -0.952566,-0.17839 -0.73469,3.47625 l 0.29667,4.97624 -4.75,0.88194 C 89.32895,115.52662 89.743507,117 96.5,117 c 3.025,0 5.5,0.45 5.5,1 0,0.55 0.95248,1 2.11663,1 1.72145,0 1.99496,-0.42008 1.46495,-2.25 z M 236.35736,95.988097 C 234.98635,94.666235 215.63841,85.210107 211.11877,83.652965 207.38426,82.366319 207,82.387908 207,83.884373 c 0,2.526277 25.87366,15.21664 28.35736,13.908555 1.02155,-0.538015 1.47155,-1.350189 1,-1.804831 z m 29.99151,-1.521173 c 6.60821,-3.215005 9.22355,-10.653519 6.14558,-17.479224 -0.9781,-2.169038 -2.93286,-4.700163 -4.34392,-5.624723 -3.12168,-2.045404 -10.56301,-2.362918 -12.35009,-0.526966 -1.07648,1.105923 -0.86989,1.302136 1.19956,1.13931 5.69016,-0.447708 8.12438,0.165252 11.01895,2.774679 6.25007,5.634371 4.65996,15.24868 -3.14771,19.032104 -2.40418,1.165014 -3.76425,2.140637 -3.02237,2.168052 0.74188,0.02741 2.76688,-0.64004 4.5,-1.483232 z M 256.5,94 c -0.33992,-0.55 0.30852,-1 1.44098,-1 3.0666,0 2.7053,-4.346478 -0.57584,-6.92742 -3.78104,-2.974169 -5.74968,-2.740858 -4.91556,0.582563 0.42701,1.701321 0.21081,2.936715 -0.60183,3.43895 -0.977,0.60382 -0.83991,1.257093 0.597,2.844857 1.86894,2.065155 5.21727,2.941241 4.05525,1.06105 z M 112.09919,87.886493 c 4.82391,-1.669416 6.60829,-1.885176 8.49213,-1.026838 1.31174,0.597668 3.08146,0.819405 3.93272,0.492748 1.36706,-0.524592 1.3776,-0.853577 0.0903,-2.818295 -1.30417,-1.990403 -1.25604,-2.529922 0.45752,-5.129241 3.37829,-5.124564 2.13249,-6.020839 -2.32183,-1.670408 -5.79039,5.655338 -13.78785,9.234951 -20.75,9.287575 -5.05458,0.03821 -5.342797,0.160475 -3.55887,1.509769 2.67101,2.020248 6.47506,1.840515 13.65806,-0.64531 z M 65,65.692003 c 0,-0.551088 -0.7875,-0.291873 -1.75,0.576033 -1.520491,1.371057 -2.07787,1.396031 -4.25,0.190423 -4.162539,-2.310356 -4.629567,-1.629697 -0.975123,1.421168 3.446408,2.877189 3.450823,2.877906 5.212226,0.846991 C 64.206696,67.608667 65,66.243091 65,65.692003 z m 38.07283,2.733594 c 1.41506,-0.711548 3.12196,-1.955381 3.79312,-2.764073 1.05182,-1.267373 0.73116,-1.360036 -2.32284,-0.671248 C 101.90626,65.584984 101,65.460011 101,64.501678 101,63.417869 98.959162,62 97.399161,62 c -0.240496,0 -0.150357,1.143133 0.200308,2.540295 0.439,1.749113 0.06408,3.174003 -1.203794,4.574983 -1.819309,2.010314 -1.805755,2.026119 1.131479,1.319365 1.635065,-0.393427 4.130616,-1.297498 5.545676,-2.009046 z m 104.8156,1.208835 c 0.93626,-1.12812 0.18023,-1.341934 -4.3479,-1.229651 C 195.79031,68.596961 193.60232,71 201.17756,71 c 3.49384,0 6.00095,-0.510161 6.71087,-1.365568 z M 158.56498,51.894854 c 0.48462,-0.784126 0.0909,-0.781077 -1.38861,0.01075 -1.13574,0.60783 -2.36935,1.597622 -2.74135,2.199537 -0.48462,0.784126 -0.0909,0.781077 1.38861,-0.01075 1.13574,-0.60783 2.36935,-1.597622 2.74135,-2.199537 z M 80,45.968615 C 80,44.771449 77.179376,43.487291 76.356736,44.30993 75.481025,45.185641 76.966387,47 78.559017,47 79.351558,47 80,46.535877 80,45.968615 z M 117.2,43.8 c -0.93333,-0.933333 -1.46667,-0.933333 -2.4,0 -0.93333,0.933333 -0.66667,1.2 1.2,1.2 1.86667,0 2.13333,-0.266667 1.2,-1.2 z m 54.60687,-7.326461 c -0.30789,-0.307888 -0.86705,0.247112 -1.24258,1.233333 -0.54268,1.425198 -0.42782,1.540062 0.5598,0.559795 0.68342,-0.678334 0.99067,-1.485241 0.68278,-1.793128 z m 68.55224,92.603771 c -1.72749,-1.05336 -3.50137,-2.51418 -3.94196,-3.24626 -0.65722,-1.09203 -0.5168,-1.10083 0.78194,-0.049 1.3387,1.08416 2.06797,0.79706 4.72525,-1.86022 2.54072,-2.54071 3.6623,-3.01649 5.85895,-2.48534 1.49419,0.36129 6.16528,0.91646 10.3802,1.23369 7.73629,0.58227 10.02438,0.11999 20.33651,-4.10881 l 4,-1.64031 -3.5,3.00071 c -10.86271,9.31309 -30.68148,14.00895 -38.64089,9.15556 z M 130.76028,128.75 c -0.89208,-0.6875 -1.76559,-2.1366 -1.94113,-3.22022 -0.27255,-1.68256 1.7979,-2.80199 14.18085,-7.66712 7.975,-3.13329 15.23643,-5.7342 16.1365,-5.77978 2.01744,-0.10217 3.21503,5.87304 1.51107,7.53932 -0.63116,0.61721 -3.17257,1.82111 -5.64757,2.67532 -2.475,0.85422 -8.3213,2.93673 -12.99178,4.6278 -9.80497,3.55016 -9.14741,3.44348 -11.24794,1.82468 z M 178.5,124.32227 c -3.3,-0.84342 -6.5887,-2.09074 -7.30822,-2.77182 C 169.56873,120.01412 170.6334,115 172.58267,115 c 1.65486,0 24.57045,5.81979 25.1338,6.38314 0.21928,0.21927 -0.9342,1.34777 -2.56327,2.50777 -3.50459,2.49549 -8.11024,2.61479 -16.6532,0.43136 z M 39,99 c 0,-0.55 0.198442,-1 0.440983,-1 0.242541,0 0.719098,0.45 1.059017,1 0.339919,0.55 0.141476,1 -0.440983,1 C 39.476558,100 39,99.55 39,99 z"
       id="path3177"
       style="fill:#e6a861" />
    <path
       d="m 42.347016,138.58118 c -3.69087,-1.7185 -6.741087,-4.32461 -10.75,-9.1848 -7.611404,-9.22766 -7.078548,-11.25772 0.844411,-3.21701 9.065778,9.20051 11.657388,10.24716 23.454238,9.47225 8.949247,-0.58785 9.374765,-0.52934 7.204613,0.9907 -2.65316,1.85834 -10.433039,4.36228 -13.509209,4.34791 -1.150088,-0.005 -4.409912,-1.08944 -7.244053,-2.40905 z m -0.128482,-6.15957 C 37.101869,129.87187 28,120.96922 28,118.51429 c 0,-0.69817 0.70451,-1.85409 1.565578,-2.56871 1.299003,-1.07808 2.072663,-0.99978 4.543662,0.45988 5.315334,3.13984 8.866626,3.69983 12.507315,1.97221 6.734204,-3.19559 5.775105,-9.07142 -3.251349,-19.919076 C 32.096849,84.9167 28.411815,79.770319 24.419694,72 20.794645,64.944154 20.556399,63.92722 20.396669,54.828025 20.20026,43.6393 21.635249,40.095314 27.493155,37.301873 29.42192,36.382109 31,35.239959 31,34.763761 c 0,-2.80093 24.260751,-6.390953 27.233878,-4.029976 0.696367,0.552989 3.033578,1.324501 5.193802,1.714471 2.226492,0.401933 5.812312,2.25335 8.278892,4.274526 l 4.351211,3.565491 8.221108,-3.873795 c 7.620729,-3.590894 8.990468,-3.901078 18.756079,-4.2474 8.06668,-0.286072 11.434,0.002 14.37213,1.229658 5.34935,2.235104 6.31646,2.070709 11.1582,-1.896736 2.34921,-1.925 4.65757,-3.5 5.12969,-3.5 0.47212,0 4.44639,5.397626 8.83171,11.994725 5.35833,8.060872 8.57563,11.996455 9.80985,12 2.87317,0.0083 14.02516,-11.361865 16.65865,-16.984484 2.57745,-5.502952 3.38472,-5.976011 5.2101,-3.053109 1.1427,1.829752 2.04207,1.917917 13.81852,1.354616 11.90589,-0.569493 13.04647,-0.452583 20.81058,2.133102 9.26298,3.084857 16.76252,8.372277 20.68241,14.581771 C 230.89636,52.21198 232.36905,54 232.78946,54 c 0.4204,0 3.11905,-1.769274 5.99699,-3.93172 8.28078,-6.22206 15.1071,-8.359227 24.89228,-7.793211 7.02177,0.406168 9.07295,0.974539 14.5,4.01787 6.18737,3.469693 9.85085,6.719091 13.16791,11.679567 1.751,2.618526 2.27584,6.530244 0.74961,5.586981 -0.49706,-0.3072 0.0424,1.803742 1.19871,4.690983 1.67477,4.18169 2.11288,7.48711 2.15374,16.24953 0.0475,10.185798 -0.15746,11.396425 -2.76914,16.35577 -3.64152,6.91492 -10.26756,13.30364 -17.46198,16.83654 -4.93867,2.42519 -6.87555,2.80184 -14.21758,2.76477 -8.8623,-0.0448 -13.08823,-1.37763 -20.9411,-6.6049 -2.84199,-1.89178 -3.32625,-1.99126 -2.78139,-0.57138 0.39234,1.02243 0.18512,1.7192 -0.51129,1.7192 -0.64405,0 -2.54243,1.32211 -4.21861,2.93801 -2.87504,2.77165 -3.25995,2.87104 -6.79761,1.75531 -2.0625,-0.65049 -3.75,-1.68566 -3.75,-2.30039 0,-1.74671 -19.85975,-20.854518 -22.04724,-21.212481 -3.35614,-0.5492 -2.18878,1.37382 5.13609,8.460871 6.51439,6.30287 11.94747,13.09292 7.62126,9.52474 -1.36372,-1.12478 -2.09822,-1.04987 -4.68424,0.47773 -2.52184,1.48969 -3.41631,1.59347 -5.03282,0.58394 C 200.695,113.79258 198,113.61191 198,114.89301 c 0,2.35043 -7.91558,1.5074 -18.75,-1.99692 L 176,111.8449 176,93.863431 C 176,82.130432 175.65251,76.09673 175,76.5 c -0.55,0.339919 -1,1.491476 -1,2.559017 C 174,80.261445 173.31509,81 172.2,81 c -0.99,0 -2.28921,0.48921 -2.88713,1.087132 -1.13254,1.132538 -1.67061,0.63018 -3.84213,-3.587132 -1.35012,-2.622081 -2.68583,-2.444482 -4.206,0.559237 L 160.02948,81.5 l -0.0147,-2.633369 c -0.0102,-1.820329 -0.65799,-2.801583 -2.09819,-3.178202 -2.05907,-0.538459 -2.07391,-0.402348 -1.26841,11.633369 0.44827,6.698011 0.82332,14.411632 0.83345,17.141372 l 0.0184,4.96317 -12.30058,3.90292 c -6.76532,2.1466 -12.50865,3.69484 -12.76297,3.44053 -0.25431,-0.25432 1.61755,-10.00745 4.1597,-21.673636 2.54215,-11.666184 4.3112,-21.522141 3.93121,-21.902127 -1.22167,-1.221672 -3.22213,2.65544 -4.51603,8.752583 -0.69268,3.264035 -1.90196,6.181181 -2.68731,6.482545 -0.78534,0.301365 -1.15649,0.108792 -0.82477,-0.42794 0.33172,-0.536731 -1.15344,-2.750077 -3.30034,-4.918547 -2.64027,-2.666783 -3.63262,-4.369836 -3.0665,-5.26267 2.36657,-3.732368 0.42452,-3.808608 -3.38241,-0.132784 -5.82247,5.621941 -12.01996,8.536099 -19.75,9.286758 -6.368366,0.618427 -6.443175,0.659226 -3.694033,2.014634 2.638363,1.300789 6.559643,0.987977 13.569093,-1.082446 0.86369,-0.255113 1.48433,0.523567 1.66887,2.09384 0.16159,1.375 0.44281,3.343664 0.62494,4.374809 0.2336,1.322635 -0.79517,2.467304 -3.49301,3.886516 -3.18784,1.676973 -3.72651,2.400745 -3.23733,4.349795 0.97149,3.87073 1.88921,14.38888 1.25545,14.38888 -1.83156,0 -5.70654,-5.09293 -5.79366,-7.61467 C 103.8455,107.7984 103.44035,105.375 103,104 l -0.80064,-2.5 -0.11499,2.5 c -0.0935,2.03293 -0.30768,2.21976 -1.14635,1 -0.75745,-1.10162 -0.952566,-0.17839 -0.73469,3.47625 l 0.29667,4.97624 -4.75,0.88194 c -5.424904,1.00724 -5.921639,1.83342 -2,3.32646 2.568944,0.97804 2.618323,1.10228 0.75,1.88708 -1.1,0.46207 -2.594643,1.4278 -3.321429,2.14608 C 90.451786,122.41232 89.044386,123 88.051016,123 c -1.982234,0 -4.395391,2.32229 -3.423292,3.29439 0.684335,0.68434 -1.608915,3.10298 -3.218663,3.39465 -0.573826,0.10398 -2.925612,-1.53154 -5.226191,-3.63447 C 73.882292,123.95163 72,122.52968 72,122.89468 c 0,0.365 -1.6875,2.40693 -3.75,4.53762 -7.566196,7.81636 -16.804916,9.58709 -26.031466,4.98931 z M 78.395513,98.653948 C 77.640332,78.581824 77.728104,79.492461 76.212024,76 75.204607,73.679301 75.122226,73.804813 75.063386,77.75 75.016751,80.876875 74.594305,82 73.464816,82 72.320388,82 72.162827,81.554567 72.845797,80.25 74.225842,77.613926 69.720265,71 66.544458,71 c -3.020045,0 -3.947306,1.378754 -2.609016,3.879372 0.782636,1.46237 0.674357,2.056385 -0.453756,2.489282 C 62.666759,77.681371 62,78.590089 62,79.388028 62,81.322781 71.820779,92 73.600343,92 74.632776,92 75,93.465 75,97.583777 l 0,5.583773 -4.942974,-7.333773 C 65.602527,89.22474 52,75.60025 52,77.747596 c 0,0.941895 6.488112,8.756973 12.392971,14.927613 2.013027,2.103635 5.05319,6.623674 6.755919,10.044531 2.678398,5.38102 3.037713,7.02374 2.664598,12.18201 l -0.431272,5.96228 2.848155,-2.02807 2.848155,-2.02806 -0.683013,-18.153952 z M 236.35736,95.988097 C 234.98635,94.666235 215.63841,85.210107 211.11877,83.652965 207.38426,82.366319 207,82.387908 207,83.884373 c 0,2.526277 25.87366,15.21664 28.35736,13.908555 1.02155,-0.538015 1.47155,-1.350189 1,-1.804831 z m 29.99151,-1.521173 c 6.60821,-3.215005 9.22355,-10.653519 6.14558,-17.479224 -0.9781,-2.169038 -2.93286,-4.700163 -4.34392,-5.624723 -3.12168,-2.045404 -10.56301,-2.362918 -12.35009,-0.526966 -1.07648,1.105923 -0.86989,1.302136 1.19956,1.13931 5.69016,-0.447708 8.12438,0.165252 11.01895,2.774679 6.25007,5.634371 4.65996,15.24868 -3.14771,19.032104 -2.40418,1.165014 -3.76425,2.140637 -3.02237,2.168052 0.74188,0.02741 2.76688,-0.64004 4.5,-1.483232 z M 256.5,94 c -0.33992,-0.55 0.32262,-1 1.47231,-1 1.7506,0 2.05356,-0.546095 1.86406,-3.359945 -0.16843,-2.500998 0.60977,-4.415543 3.04409,-7.489128 3.40951,-4.304857 3.77338,-7.401327 0.934,-7.948143 -1.03031,-0.19842 -2.92741,1.400807 -4.98852,4.205258 -1.82927,2.488992 -4.15157,4.807834 -5.16068,5.152983 -1.39613,0.477523 -1.6811,1.239743 -1.19201,3.188402 0.40351,1.607747 0.17072,2.85258 -0.6255,3.344666 -0.977,0.60382 -0.83991,1.257093 0.597,2.844857 1.86894,2.065155 5.21727,2.941241 4.05525,1.06105 z M 65,65.692003 c 0,-0.551088 -0.7875,-0.291873 -1.75,0.576033 -1.520491,1.371057 -2.07787,1.396031 -4.25,0.190423 -4.162539,-2.310356 -4.629567,-1.629697 -0.975123,1.421168 3.446408,2.877189 3.450823,2.877906 5.212226,0.846991 C 64.206696,67.608667 65,66.243091 65,65.692003 z m 38.07283,2.733594 c 1.41506,-0.711548 3.12196,-1.955381 3.79312,-2.764073 1.05252,-1.268212 0.72602,-1.358876 -2.37499,-0.659486 -2.58244,0.582435 -3.47778,0.48508 -3.17824,-0.345587 0.22936,-0.636048 0.006,-1.954575 -0.49567,-2.93006 -0.78005,-1.515856 -1.115097,-1.571202 -2.305463,-0.380835 -0.786416,0.786416 -1.146438,2.334772 -0.826951,3.556491 0.35278,1.349034 -0.130013,2.932608 -1.282252,4.205817 -1.828071,2.019997 -1.815896,2.034359 1.12477,1.326779 1.635065,-0.393427 4.130616,-1.297498 5.545676,-2.009046 z m 104.8156,1.208835 c 0.93626,-1.12812 0.18023,-1.341934 -4.3479,-1.229651 C 195.79031,68.596961 193.60232,71 201.17756,71 c 3.49384,0 6.00095,-0.510161 6.71087,-1.365568 z M 158.56498,51.894854 c 0.48462,-0.784126 0.0909,-0.781077 -1.38861,0.01075 -1.13574,0.60783 -2.36935,1.597622 -2.74135,2.199537 -0.48462,0.784126 -0.0909,0.781077 1.38861,-0.01075 1.13574,-0.60783 2.36935,-1.597622 2.74135,-2.199537 z M 80,45.968615 C 80,44.771449 77.179376,43.487291 76.356736,44.30993 75.481025,45.185641 76.966387,47 78.559017,47 79.351558,47 80,46.535877 80,45.968615 z M 117.2,43.8 c -0.93333,-0.933333 -1.46667,-0.933333 -2.4,0 -0.93333,0.933333 -0.66667,1.2 1.2,1.2 1.86667,0 2.13333,-0.266667 1.2,-1.2 z m 54.60687,-7.326461 c -0.30789,-0.307888 -0.86705,0.247112 -1.24258,1.233333 -0.54268,1.425198 -0.42782,1.540062 0.5598,0.559795 0.68342,-0.678334 0.99067,-1.485241 0.68278,-1.793128 z m 83.54507,91.754211 c -1.76481,-0.27945 -3.25742,-2.6153 -3.34054,-5.22775 -0.009,-0.275 3.14925,-0.35002 7.01778,-0.16671 6.89174,0.32657 9.82821,-0.3177 19.47082,-4.27194 l 4,-1.64031 -3.5,2.98754 c -7.34062,6.26582 -16.42749,9.4625 -23.64806,8.31917 z m -84.15993,-7.08792 C 169.31358,119.9485 170.73786,115 172.95918,115 c 0.95831,0 3.04702,0.3975 4.6416,0.88334 1.59457,0.48583 4.89429,1.48511 7.33271,2.22061 4.00336,1.20754 4.19739,1.40172 2,2.00141 -1.33842,0.36527 -4.12099,0.43348 -6.18349,0.15158 -2.41962,-0.33072 -3.75,-0.11245 -3.75,0.61525 0,1.3068 -3.88706,1.48592 -5.80799,0.26764 z M 154,118.98653 c -0.825,-0.54057 -3.525,-0.72146 -6,-0.40199 l -4.5,0.58085 3,-1.88079 C 149.90118,115.1523 157.89439,112 159.90001,112 c 0.88616,0 1.17138,0.84622 0.85068,2.52387 -0.26536,1.38812 -0.0448,2.79437 0.49018,3.125 1.2883,0.79621 -1.169,2.3205 -3.74087,2.3205 -1.1,0 -2.675,-0.44228 -3.5,-0.98284 z M 39,99 c 0,-0.55 0.198442,-1 0.440983,-1 0.242541,0 0.719098,0.45 1.059017,1 0.339919,0.55 0.141476,1 -0.440983,1 C 39.476558,100 39,99.55 39,99 z"
       id="path3175"
       style="fill:#9992ad" />
    <path
       d="M 43.61548,138.58135 C 39.242609,136.96238 33.243924,131.55355 28.907735,125.31982 27.308481,123.02073 26,120.91664 26,120.64406 c 0,-0.27257 2.544244,2.17179 5.653876,5.43191 3.197771,3.35253 7.992423,7.07165 11.037139,8.56129 5.471043,2.67673 9.479418,2.83866 19.808985,0.80022 l 3,-0.59202 -3.406892,2.27481 c -4.22796,2.82304 -12.938544,3.51181 -18.477628,1.46108 z m 3.378046,-4.47776 c -5.139753,-1.64122 -8.662482,-4.06031 -13.757153,-9.44718 -5.573138,-5.89277 -5.987352,-6.78826 -3.929799,-8.49588 0.967778,-0.80318 2.56753,-0.44598 6.169478,1.37755 6.55096,3.31652 9.95771,3.182 13.67987,-0.54016 C 54.129772,112.02407 52.791105,108.99796 37.434013,90.5 29.224572,80.611547 21.508021,66.570534 20.466663,59.62626 19.713976,54.606986 22.027212,45.052232 24.489903,43.00838 26.798227,41.092641 26.286296,39.779398 23.75,41.110325 c -2.209904,1.159653 -2.217526,1.144088 -0.427706,-0.873441 1.002262,-1.129773 3.139762,-2.599847 4.75,-3.266829 C 29.682532,36.303072 31,35.338991 31,34.827653 c 0,-2.943515 22.653003,-6.293576 27.315202,-4.039534 1.201639,0.580958 3.387616,1.316165 4.857726,1.633793 C 66.369481,33.112549 72,37.635207 72,39.512168 c 0,0.73391 1.125,2.671368 2.5,4.305463 1.375,1.634094 2.5,3.492643 2.5,4.130107 0,1.316791 -9.472522,13.370637 -13.241756,16.850221 -2.454101,2.265514 -2.541515,2.273035 -6.191152,0.532644 -3.33986,-1.592668 -3.96426,-1.618724 -6.384498,-0.266416 -5.980173,3.341421 -3.312018,10.179869 9.355011,23.976773 C 70.208286,99.574247 73,104.94281 73,113.00659 c 0,9.17314 -3.91209,15.36026 -12.5,19.76923 -2.917543,1.49785 -10.60666,2.25373 -13.506474,1.32777 z m 30.228752,-6.9838 c -3.557793,-3.05198 -3.530481,-5.23189 0.10247,-8.1789 1.840727,-1.49318 1.890665,-2.62442 1.180868,-26.750004 C 77.90502,71.776965 77.502362,67 76.382239,67 c -0.957095,0 -1.386949,1.307201 -1.397552,4.25 -0.02334,6.479045 -1.292668,7.58806 -3.807152,3.326327 C 69.857241,72.338596 68.306241,71 67.033725,71 65.915176,71 65,70.519975 65,69.933278 c 0,-1.111071 3.276163,-5.80512 8.46633,-12.13046 7.722021,-9.410951 7.899994,-9.749819 6.497194,-12.370974 C 79.247708,44.09433 78.288081,43 77.83102,43 77.373959,43 77,42.366993 77,41.593318 c 0,-1.54397 11.939075,-6.879801 19.072677,-8.523993 7.124423,-1.642075 13.946773,-1.19672 21.273283,1.388694 l 6.84597,2.415835 3.49284,-3.186927 c 5.82388,-5.313811 5.87929,-5.308323 10.3644,1.026683 7.20975,10.183429 13.02527,19.545288 12.48006,20.090496 C 150.23815,55.095181 150,54.808333 150,54.166667 150,53.525 149.45,53 148.77778,53 c -0.67397,0 -0.25446,0.967765 0.93523,2.15745 2.08122,2.081226 2.25097,2.09617 4.80461,0.422963 C 162.7265,50.201745 173,38.310528 173,34.187696 c 0,-2.613713 0.0107,-2.617409 1.48527,-0.512191 1.28731,1.837891 1.98704,2.004009 5.25,1.246363 2.0706,-0.480785 7.89509,-0.88489 12.9433,-0.898011 7.04611,-0.01831 9.54476,0.342334 10.75474,1.552308 2.1114,2.111407 13.56508,6.542867 14.85321,5.746754 0.56317,-0.348054 0.72115,-0.144341 0.35168,0.453474 -0.36895,0.596976 -0.21348,1.368062 0.34549,1.713526 0.55897,0.345463 1.01631,0.130549 1.01631,-0.477587 0,-1.305011 4.92216,2.055951 4.96858,3.392656 0.0173,0.497743 -0.98108,0.05096 -2.21858,-0.992846 l -2.25,-1.897834 2.08823,2.492846 c 4.84642,5.785442 6.41221,9.610825 6.38981,15.61088 -0.0288,7.705019 -2.75518,13.727911 -7.47481,16.512564 -4.28098,2.525835 -3.9964,3.692909 0.35215,1.44419 3.59496,-1.859027 7.41796,-6.729412 9.00652,-11.474011 C 232.26681,63.904648 232.35703,56 231,56 c -0.55,0 -1,-0.435877 -1,-0.968615 0,-0.532739 0.70186,-0.699285 1.5597,-0.370103 0.92081,0.353349 2.6617,-0.431985 4.25,-1.917223 3.86713,-3.616205 15.15438,-9.112998 13.62222,-6.633902 -0.45303,0.733022 -0.003,0.888447 1.33934,0.462441 3.54914,-1.126451 15.58463,-0.966171 19.88608,0.264828 10.04948,2.875989 19.16704,12.361352 22.94138,23.866834 2.92797,8.925433 2.58853,21.188902 -0.78804,28.470886 -3.67551,7.926694 -9.82212,14.213344 -17.67229,18.074924 -5.76421,2.83547 -7.56524,3.23877 -14.12258,3.16244 -8.68499,-0.1011 -14.81684,-2.36969 -21.74096,-8.04349 -4.62708,-3.79154 -6.49881,-3.95456 -3.97118,-0.34586 1.41834,2.02496 1.27779,2.36017 -2.3721,5.65762 -3.87903,3.50448 -3.88021,3.50478 -6.28768,1.61107 -2.17951,-1.71441 -2.2694,-2.07894 -0.94762,-3.84296 2.96129,-3.95209 5.45274,-9.69988 4.58198,-10.57064 -0.51173,-0.51173 -2.33504,1.42746 -4.33102,4.60626 -1.89598,3.01953 -3.68456,5.49578 -3.97464,5.50277 -0.29007,0.007 -5.08822,-4.26228 -10.66256,-9.48728 C 203.90507,98.559106 200.47787,96 198.58743,96 L 196,96 l 0,10 c 0,11.59491 0.89028,10.99386 -11.63217,7.85314 l -8.5598,-2.14686 0.72846,-18.98063 c 0.60807,-15.844011 0.50247,-18.905302 -0.63906,-18.524793 -0.75213,0.250711 -1.77684,1.883082 -2.27713,3.62749 C 173.12001,79.572756 172.13758,81 171.43713,81 c -0.70046,0 -1.98157,0.271689 -2.84691,0.603754 -0.99562,0.382054 -1.81587,-0.07695 -2.23379,-1.25 -0.36324,-1.019565 -1.30931,-2.610902 -2.10238,-3.536304 -1.29892,-1.515667 -0.87989,-2.110776 4.22476,-6 7.34516,-5.59627 12.94082,-10.946526 13.33074,-12.746102 0.17025,-0.785758 -1.62975,0.218985 -4,2.232763 -2.37025,2.013777 -8.25807,6.256671 -13.08404,9.428651 l -8.7745,5.767238 0.64676,16.620599 0.64676,16.620601 -4.37227,1.64928 c -2.40474,0.9071 -7.85976,2.71648 -12.12226,4.02083 -6.88761,2.10765 -7.74929,2.18889 -7.74359,0.73012 0.006,-1.62172 7.52629,-37.084534 8.54722,-40.307273 0.29025,-0.916214 0.0382,-1.968374 -0.56007,-2.338134 -0.59828,-0.369761 -5.27937,-5.707183 -10.40241,-11.860938 -6.15301,-7.39094 -10.0466,-11.243785 -11.47116,-11.351093 -1.66667,-0.125547 0.23832,2.537418 8.38637,11.723182 l 10.54292,11.88563 -1.67395,6.803598 c -0.92067,3.741979 -1.798,6.957347 -1.94963,7.145262 -0.54874,0.680045 -3.23424,-1.409782 -5.87142,-4.56907 -2.6596,-3.186141 -2.67145,-3.265661 -0.92673,-6.219234 2.84182,-4.810825 0.80798,-4.685042 -3.98487,0.246443 -5.88471,6.054916 -12.83236,9.459025 -21.01691,10.297557 -6.043551,0.61918 -6.556187,0.852531 -6.127383,2.789176 0.942193,4.255313 3.495315,20.161944 3.498418,21.796074 0.0035,1.82749 -0.450453,2.00683 -9.746805,3.8509 -3.4375,0.68188 -6.25,1.60681 -6.25,2.05542 0,0.4486 2.8125,0.95592 6.25,1.12738 4.778018,0.23833 5.778966,0.53078 4.25,1.24177 -1.1,0.5115 -2.594643,1.51769 -3.321429,2.23597 -0.726785,0.71827 -2.076785,1.30593 -3,1.30591 -0.923214,-3e-5 -3.028571,1.55956 -4.678571,3.46576 l -3,3.4658 -3.277722,-2.81173 z M 237.39092,97.176498 c 0.27627,-0.44701 -1.9052,-2.031779 -4.84771,-3.521708 -2.94251,-1.489928 -5.61531,-3.400294 -5.93955,-4.245257 -0.32424,-0.844964 -1.06255,-1.243957 -1.64068,-0.886651 -0.89463,0.552911 -4.13801,-0.790561 -16.31036,-6.75608 -2.39866,-1.175555 -2.89127,-0.586156 -1.85389,2.218147 0.58725,1.587499 4.7503,4.288294 13.77148,8.934301 12.43015,6.401663 15.08077,7.072525 16.82071,4.257248 z m 32.37377,-4.599659 c 3.586,-3.286324 3.73531,-3.685292 3.73531,-9.980769 0,-6.012689 -0.25996,-6.817566 -3.12836,-9.685966 -6.08355,-6.083551 -15.58388,-4.530663 -20.37704,3.330756 -2.49072,4.0851 -2.49481,8.060311 -0.0139,13.526084 2.19499,4.835935 4.4685,6.079 11.28403,6.16967 4.07625,0.05423 5.30438,-0.431216 8.5,-3.359775 z m -9.06052,-2.745762 c -0.48842,-3.641449 -0.15483,-4.736871 2.44045,-8.01368 3.17233,-4.005393 3.44285,-7.08058 0.66984,-7.614613 -1.02974,-0.198308 -2.92856,1.400196 -4.98852,4.199517 -2.19631,2.984612 -4.09014,4.532945 -5.57594,4.558699 -3.35627,0.05818 -2.98461,-4.380239 0.67308,-8.037923 4.01565,-4.015653 8.79474,-3.987743 13.42583,0.07841 6.97868,6.127361 4.90045,15.784072 -3.96395,18.418942 -1.86704,0.554962 -2.18137,0.134091 -2.68079,-3.58935 z M 208.54545,69.545455 c 1.35,-1.35 2.45455,-3.375 2.45455,-4.5 0,-2.548865 0.0838,-2.558388 -4,0.454545 -1.86371,1.375 -4.65113,2.5 -6.19428,2.5 -2.61559,0 -2.81375,-0.287994 -2.9242,-4.25 -0.0652,-2.3375 -0.0532,-4.778567 0.0265,-5.424593 0.0797,-0.646026 -0.25966,-1.424686 -0.75424,-1.730356 -1.03495,-0.639632 -2.58978,12.890494 -1.65512,14.402807 C 195.83932,71.549036 198.36193,72 201.10447,72 c 3.96091,0 5.49125,-0.504811 7.44098,-2.454545 z m -107.10098,0.04219 C 105.88153,67.733725 109,64.530055 109,61.825686 l 0,-2.174314 -2.31445,2.174314 C 103.70719,64.623713 102.59992,64.564533 100.59196,61.5 99.691022,60.125 98.064268,59 96.976947,59 95.886327,59 95,58.327503 95,57.5 95,56.675 94.364257,56 93.587237,56 c -0.958763,0 -1.301101,0.883727 -1.065294,2.75 1.53147,12.120641 1.569184,12.25 3.571449,12.25 1.083965,0 3.49195,-0.635558 5.351078,-1.412351 z M 184.62058,55.37942 c 0.12614,-0.859478 -0.0499,-1.283428 -0.39123,-0.942111 -0.34131,0.341317 -0.72378,1.323785 -0.84993,2.183263 -0.12614,0.859478 0.0499,1.283428 0.39123,0.942111 0.34131,-0.341317 0.72378,-1.323785 0.84993,-2.183263 z M 182.994,46.772209 c -3.69479,-3.619083 -4.07912,-3.813575 -2.51398,-1.272209 4.41419,7.167457 4.80881,7.611166 5.84642,6.573556 0.70552,-0.705517 -0.34239,-2.37257 -3.33244,-5.301347 z m -62.69054,-3.31262 c 0.99191,-1.362659 1.52785,-2.923518 1.19099,-3.468575 C 121.15758,39.445956 121.43352,39 122.10765,39 c 0.67413,0 0.96032,-0.265368 0.63598,-0.589707 -0.66167,-0.66167 -9.64374,5.668787 -9.70463,6.839707 -0.0996,1.915196 5.58734,0.513586 7.26446,-1.790411 z M 255.25,128.25449 c -1.2375,-0.21648 -2.25,-0.77549 -2.25,-1.24225 0,-0.46677 -0.22795,-1.44797 -0.50655,-2.18045 -0.39488,-1.0382 1.3136,-1.35169 7.75,-1.42207 6.13586,-0.0671 9.50734,-0.64416 13.12628,-2.24673 3.98023,-1.76256 4.61954,-1.85225 3.5,-0.49103 -1.66266,2.02159 -12.22211,6.86614 -16.36973,7.51024 -1.65,0.25624 -4.0125,0.28877 -5.25,0.0723 z m -83.81749,-7.56977 c -0.2776,-0.72341 -0.15098,-2.20803 0.28138,-3.29916 0.78332,-1.97682 0.81632,-1.97688 9.28611,-0.0167 6.86391,1.58854 8.0188,2.10514 6,2.68391 -1.375,0.39419 -4.1875,0.48607 -6.25,0.20417 -2.41962,-0.33072 -3.75,-0.11245 -3.75,0.61525 0,1.58147 -4.95268,1.4147 -5.56749,-0.18747 z M 154,119.01089 c -0.825,-0.55396 -3.525,-0.75868 -6,-0.45493 -5.58945,0.68599 -3.95416,-0.53365 5.47339,-4.08216 4.62766,-1.74185 6.56122,-2.09542 6.64555,-1.21521 0.54345,5.67231 0.35714,6.24389 -2.11894,6.50046 -1.375,0.14248 -3.175,-0.19419 -4,-0.74816 z m -47.09066,-4.29231 c -2.28772,-3.19079 -3.18113,-7.46132 -1.66655,-7.96618 0.88975,-0.29658 0.74822,-0.90425 -0.50172,-2.15419 -0.95759,-0.95758 -1.78584,-2.49642 -1.84055,-3.41964 -0.0547,-0.92321 -0.26704,-3.509247 -0.47182,-5.746742 l -0.37235,-4.068171 5.22183,-1.324268 c 2.872,-0.728347 5.67182,-1.490145 6.22182,-1.692883 0.55,-0.202739 1.07089,0.648859 1.15753,1.892439 0.0867,1.24358 0.31165,3.149564 0.5,4.235519 0.25994,1.498624 -0.50102,2.25529 -3.15753,3.139731 -3.20093,1.065696 -3.49811,1.495123 -3.47788,5.025535 0.0122,2.12315 0.36517,6.22277 0.78445,9.11027 0.81931,5.64254 0.13103,6.49487 -2.39723,2.96858 z M 203,114.5 C 202.31531,113.675 201.13521,113 200.37756,113 199.36054,113 199,111.42964 199,107 c 0,-3.87084 0.40995,-6 1.15524,-6 1.39428,0 11.52452,9.68697 13.07199,12.5 0.98517,1.79088 0.92677,1.85693 -0.5585,0.63171 -1.41313,-1.1657 -2.0244,-1.12869 -4.12854,0.25 -3.05651,2.0027 -3.96025,2.022 -5.54019,0.11829 z M 72.5,98.317766 C 71.4,96.217995 65.8875,89.697043 60.25,83.826763 49.784824,72.929465 48.13908,69.789316 51.452012,67.039826 53.43185,65.396707 55.812608,66.350532 60.25,70.564647 64.142739,74.261514 64.694628,75.452662 63,76.5 c -2.484526,1.535521 -0.70047,5.37292 5.550808,11.939457 5.773228,6.06438 6.515102,7.285637 6.25,10.288624 L 74.5,102.13553 72.5,98.317766 z M 73,80.059017 C 73,79.476558 73.45,79 74,79 c 0.55,0 1,0.198442 1,0.440983 0,0.242541 -0.45,0.719098 -1,1.059017 -0.55,0.339919 -1,0.141476 -1,-0.440983 z m 87,-0.5 c 0,-0.792541 0.40803,-1.693162 0.90674,-2.00138 0.49871,-0.308218 0.67122,0.340224 0.38337,1.440983 C 160.6795,81.333607 160,81.628767 160,79.559017 z"
       id="path3173"
       style="fill:#87789f" />
    <path
       d="M 45.993526,139.11851 C 39.173074,136.90001 35.509822,133.87022 29.527719,125.5 c -2.4893,-3.48305 -2.137532,-3.27373 2.721888,1.61971 7.793306,7.84785 13.106391,10.26078 21.050212,9.5599 3.4101,-0.30087 7.550181,-0.83664 9.200181,-1.19059 l 3,-0.64356 -3.376359,2.25548 c -3.638661,2.4307 -11.743387,3.44444 -16.130115,2.01757 z M 42,131.95249 c -4.181795,-2.57081 -9.415566,-7.39962 -12.180168,-11.23774 -1.586488,-2.20253 -1.757413,-3.08503 -0.816988,-4.21818 1.018276,-1.22694 1.889404,-1.07813 6.059949,1.03525 6.263926,3.17417 9.983229,3.14178 13.860482,-0.12071 C 54.155479,113.0085 52.729793,108.55958 42.061949,96 17.823731,67.463614 14.397632,49.713943 30.777708,37.539459 c 2.597261,-1.930413 5.385726,-4.079006 6.19659,-4.774651 0.976016,-0.837329 4.524797,-1.228152 10.5,-1.156351 13.246891,0.159181 16.368838,0.618915 15.721652,2.315152 -0.388535,1.018327 -0.05193,1.235102 1.182379,0.761454 0.949051,-0.364185 1.493782,-0.287151 1.210514,0.171185 -0.283267,0.458337 1.728745,2.75217 4.47114,5.097407 8.007569,6.847902 8.009135,6.889779 0.612086,16.36277 -8.502119,10.888193 -8.99331,11.272404 -11.851617,9.270368 -2.607531,-1.826386 -6.099254,-2.043134 -8.886193,-0.551609 -2.671914,1.429964 -2.537063,7.253391 0.273261,11.800591 1.214137,1.964514 5.723681,7.417629 10.02121,12.118034 10.355045,11.325791 13.13801,16.945711 12.59721,25.438811 -0.469033,7.36602 -3.385692,12.47748 -9.469887,16.59604 C 58.102818,134.54471 47.029555,135.04447 42,131.95249 z m 35.288814,-4.77715 c -2.300776,-1.97477 -3.058606,-3.33965 -2.673009,-4.81418 0.465853,-1.78142 1.872279,-2.23456 10.465505,-3.37192 9.344284,-1.23677 13.558546,-0.92844 9.311818,0.68127 -1.04122,0.39467 -2.487771,1.30526 -3.214557,2.02354 -0.726785,0.71827 -2.076785,1.30593 -3,1.30591 -0.923214,-3e-5 -3.028571,1.55956 -4.678571,3.46576 l -3,3.4658 -3.211186,-2.75618 z M 255.25,128.25449 c -1.2375,-0.21648 -2.25,-0.77549 -2.25,-1.24225 0,-0.46677 -0.22932,-1.44797 -0.5096,-2.18045 -0.39898,-1.04269 1.28337,-1.33179 7.75,-1.33179 4.78898,0 9.6387,-0.5818 11.54166,-1.3846 5.9372,-2.50472 4.36316,-0.5035 -2.02692,2.57701 -6.60011,3.18176 -10.79306,4.21143 -14.50514,3.56208 z m -83.75553,-7.26344 C 170.51901,119.41273 171.97238,116 173.61998,116 c 0.81687,0 4.72404,0.75191 8.68261,1.6709 5.94847,1.38096 6.76359,1.79477 4.69741,2.38474 -1.375,0.39262 -4.1875,0.4832 -6.25,0.2013 -2.41962,-0.33072 -3.75,-0.11245 -3.75,0.61525 0,1.39959 -4.65193,1.50002 -5.50553,0.11886 z m 55.1544,-1.82655 c -1.56359,-1.72774 -1.42592,-2.19938 2.34501,-8.03374 2.20337,-3.40903 4.00612,-6.43808 4.00612,-6.73122 0,-0.29314 1.125,-2.00793 2.5,-3.81065 1.375,-1.802721 2.5,-3.565115 2.5,-3.916435 0,-0.35132 -2.23584,-1.77175 -4.96854,-3.15651 -2.7516,-1.394347 -5.61745,-3.744376 -6.42288,-5.266846 -1.2536,-2.369616 -1.54897,-2.507053 -2.13979,-0.99564 -0.628,1.60657 -1.1039,1.525697 -5.68088,-0.965409 l -4.99546,-2.718868 2.85378,-0.941786 c 9.13637,-3.015133 15.23852,-11.373386 15.75463,-21.579452 0.23123,-4.572581 0.67079,-5.482624 3.95625,-8.190774 5.05801,-4.16924 17.59957,-7.226558 27.14289,-6.616756 16.14707,1.031771 28.66633,13.683453 31.60661,31.940947 2.70232,16.779895 -5.32643,32.134419 -20.48262,39.171819 -6.6068,3.06771 -11.35218,3.74896 -18.27058,2.62296 -7.04597,-1.14676 -13.10488,-4.06155 -17.68113,-8.50594 -5.05249,-4.90692 -7.9286,-4.47821 -3.839,0.57224 1.81471,2.24107 1.79575,2.29791 -1.8712,5.61078 -2.03746,1.84073 -3.9177,3.34678 -4.17829,3.34678 -0.2606,0 -1.22131,-0.82597 -2.13492,-1.8355 z m 42.08032,-24.724459 c 5.2951,-3.465338 7.24783,-13.284635 3.80194,-19.118063 -6.71288,-11.36399 -24.5062,-6.155779 -24.52299,7.178022 -0.0112,8.887558 6.51163,15.187185 14.49186,13.99599 2.2,-0.328391 5.00314,-1.253568 6.22919,-2.055949 z m -8.06046,-5.093977 c -0.49696,-3.062444 -0.10124,-4.274769 2.44458,-7.489127 3.2004,-4.040841 3.48233,-7.118545 0.70115,-7.654153 -1.02974,-0.198308 -2.92856,1.400196 -4.98852,4.199517 -2.19631,2.984612 -4.09014,4.532945 -5.57594,4.558699 -4.48575,0.07775 -1.29296,-8.053169 3.86884,-9.852583 5.03636,-1.755684 6.81768,-1.34548 10.46453,2.409775 4.60685,4.743787 4.7938,10.258486 0.49355,14.558731 -4.12531,4.125312 -6.66073,3.875179 -7.40819,-0.730859 z M 154,119.01089 c -0.825,-0.55396 -3.525,-0.78377 -6,-0.51067 l -4.5,0.49653 5.43675,-2.56072 c 6.13771,-2.89089 11.00502,-4.11445 11.18219,-2.81103 0.65624,4.82786 0.29131,5.8843 -2.11894,6.13405 -1.375,0.14248 -3.175,-0.19419 -4,-0.74816 z m -47.25,-4.48042 C 104.60671,111.58291 104.41865,107 106.44098,107 c 1.85643,0 2.18242,0.6183 3.03156,5.75 0.78834,4.76419 -0.12069,5.35866 -2.72254,1.78047 z M 78.88807,98.75 C 78.740475,76.003313 77.811512,62.761223 76.329075,62.272262 75.104444,61.868336 73.301611,71.504629 73.807554,75.75 74.17968,78.872506 73.534452,78.571004 71.132501,74.5 69.830476,72.293232 68.302999,71 66.998542,71 65.163851,71 65.065585,70.74528 66.130531,68.75 66.791025,67.5125 70.406858,62.51831 74.165715,57.6518 77.924572,52.78529 81,48.258799 81,47.59293 81,46.927061 80.339312,45.508751 79.531803,44.44113 77.220114,41.384803 77.698467,40.339071 82.25,38.498855 c 6.725375,-2.719115 7.388467,-2.875671 5.301555,-1.251697 -1.602865,1.247303 -0.361331,1.166865 7,-0.453522 9.797465,-2.156632 18.073645,-1.977143 22.751215,0.493415 l 2.80277,1.480343 -3.71652,3.063473 -3.71652,3.063473 3.56945,4.30283 c 1.9632,2.366557 7.6055,8.669453 12.53844,14.006436 l 8.969,9.703607 -1.56801,6.796393 c -0.8624,3.738017 -1.67226,6.950143 -1.79969,7.138058 -0.47218,0.696328 -3.21093,-1.434607 -5.74226,-4.467871 l -2.60889,-3.126208 2.22081,-4.054383 c 3.37248,-6.156924 1.42506,-6.094477 -4.27009,0.136926 C 117.35936,82.575535 110.32442,86 102.06193,86 98.194412,86 96,86.412283 96,87.138907 c 0,0.626399 0.920042,6.531357 2.044537,13.122133 1.124496,6.59077 1.86498,12.16278 1.645521,12.38224 -0.503917,0.50391 -16.589138,3.35352 -18.940058,3.35535 -1.594765,10e-4 -1.759929,-1.52881 -1.86193,-17.24863 z m 24.13714,-29.762863 c 6.70902,-3.422685 8.44338,-8.241953 4.76822,-13.249477 -1.14973,-1.566543 -1.32316,-1.346349 -1.56107,1.981922 -0.1472,2.059345 -0.89574,4.372374 -1.66344,5.140065 -1.1944,1.194402 -2.1412,0.638535 -6.561834,-3.852448 -7.359929,-7.477056 -7.839915,-6.424261 -4.441891,9.742801 0.60716,2.888739 4.091254,2.976076 9.460015,0.237137 z M 133.00641,115.25 c 0.006,-0.66241 7.16499,-34.384156 8.46617,-39.877202 0.3843,-1.622371 -2.23241,-5.39939 -11.02601,-15.915168 l -11.5299,-13.787966 3.77459,-3.865535 c 2.07603,-2.126044 5.2417,-4.864219 7.03484,-6.084832 1.79313,-1.220613 3.26331,-3.006797 3.26707,-3.969297 0.0122,-3.131827 1.65341,-1.86202 5.36469,4.150727 3.32442,5.385988 5.10608,9.67695 2.53249,6.099273 -0.90117,-1.252771 -0.98256,-1.202002 -0.4938,0.30803 0.64619,1.996394 9.28073,14.374487 10.59285,15.185416 1.28422,0.793696 10.10805,-6.617969 16.51996,-13.876123 l 5.80125,-6.566897 4.46516,5.724787 c 6.85028,8.782771 7.09752,9.690791 3.64331,13.380361 -3.75002,4.005529 -17.65106,14.411962 -22.67624,16.975619 -3.3646,1.71649 -3.80821,2.334908 -3.35246,4.673534 0.28889,1.4824 0.82483,9.067262 1.19098,16.855248 l 0.66573,14.159975 -11.10506,3.59002 c -11.5819,3.74418 -13.14624,4.08241 -13.13562,2.84003 z m 52.19601,-1.30608 c -4.01367,-1.03658 -7.67368,-2.11714 -8.13337,-2.40125 -0.45969,-0.2841 -0.59755,-9.29743 -0.30636,-20.029609 C 177.24041,73.906387 177.13247,72 175.65788,72 c -1.11665,0 -1.82512,1.193694 -2.23693,3.768987 -0.43615,2.727532 -1.3072,4.101462 -3.15228,4.972204 C 167.59325,82.003784 166,81.641189 166,79.769724 c 0,-0.611734 -0.69411,-1.879231 -1.54248,-2.816661 -1.41722,-1.566015 -1.11271,-2.011562 3.75,-5.486842 7.31923,-5.230902 17.30137,-14.067745 19.24942,-17.040854 1.57443,-2.402876 1.49223,-2.643333 -2.81862,-8.245615 -2.44219,-3.173809 -5.15989,-6.367729 -6.03933,-7.097601 -2.47344,-2.052771 -1.94442,-2.912048 2.5355,-4.118367 3.2586,-0.87745 5.536,-0.791783 10.75,0.404373 3.63853,0.834723 8.37846,1.80291 10.53318,2.151528 15.25544,2.468222 26.57828,12.708085 26.51648,23.980315 -0.0263,4.798009 -2.05494,10.857462 -4.58907,13.707427 -2.73002,3.070264 -9.26482,5.74565 -14.09508,5.770611 -3.10135,0.01603 -4.25,0.427368 -4.25,1.521962 0,2.598467 3.1722,4.839353 14.78495,10.444298 6.57111,3.171577 11.09437,5.927794 10.83546,6.602512 -0.24445,0.63702 -2.52305,4.40105 -5.06357,8.36452 l -4.61913,7.20631 -10.13287,-9.55882 C 203.37195,97.603667 201.13783,96 198.48815,96 l -3.18382,0 0.48153,10 c 0.55759,11.57939 1.30908,11.01532 -10.58344,7.94392 z M 208.8103,69.701925 c 2.84412,-3.027428 3.753,-7.927787 2.17635,-11.734151 C 209.44704,54.250833 207.28478,53 202.39907,53 c -4.63443,0 -4.16273,0.624218 0.98516,1.303679 5.50204,0.726206 6.05892,2.088564 4.0036,9.794564 C 206.94388,65.762771 202.96748,68 200.45295,68 199.37356,68 199,66.697561 199,62.934259 199,57.787799 197.71319,54 195.96482,54 195.41653,54 195,57.885467 195,63 l 0,9 5.82569,0 c 4.78459,0 6.2115,-0.410682 7.98461,-2.298075 z M 202.25,114.05644 c -1.84674,-1.54061 -2.25,-2.89043 -2.25,-7.53131 l 0,-5.65428 6.44123,5.69024 c 3.54268,3.12963 6.70298,6.37234 7.0229,7.20602 0.4807,1.25268 0.31819,1.29712 -0.93623,0.25604 -1.23392,-1.02406 -1.97994,-0.95698 -3.98771,0.35856 -3.07632,2.01568 -3.51102,1.9932 -6.29019,-0.32527 z M 103.53701,101.75 c -0.22012,-0.6875 -0.55772,-2.869671 -0.75022,-4.849268 -0.29622,-3.046263 -0.0763,-3.527686 1.43161,-3.133369 1.17441,0.307117 1.7816,-0.0935 1.7816,-1.175482 0,-1.541381 1.33845,-2.339989 6.74371,-4.023741 1.73852,-0.541555 2.11521,-0.364057 1.67299,0.788329 -0.31389,0.817987 -0.0444,2.470725 0.59894,3.67275 1.44559,2.701123 0.38425,3.938513 -4.17299,4.86516 -2.42246,0.492571 -3.43062,1.288883 -3.6622,2.892651 -0.34051,2.35808 -2.97391,3.0541 -3.64344,0.96297 z M 72.570982,97.875702 C 71.510022,96.065986 66.244767,90.008087 60.870416,84.413704 49.115999,72.17805 47.009839,66.986758 53.809017,67.008674 c 1.705171,0.0055 4.064754,1.310753 6.440983,3.562978 4.236431,4.015351 4.152107,3.811611 2.603711,6.290986 -1.862839,2.982879 -0.289283,6.259056 6.181696,12.870427 4.802992,4.907197 6.03305,6.786121 5.782649,8.833047 L 74.5,101.16609 72.570982,97.875702 z M 73,80.059017 C 73,79.476558 73.45,79 74,79 c 0.55,0 1,0.198442 1,0.440983 0,0.242541 -0.45,0.719098 -1,1.059017 -0.55,0.339919 -1,0.141476 -1,-0.440983 z m 87,-0.5 c 0,-0.792541 0.40803,-1.693162 0.90674,-2.00138 0.49871,-0.308218 0.67122,0.340224 0.38337,1.440983 C 160.6795,81.333607 160,81.628767 160,79.559017 z m -43,-43.5 C 117,35.476558 117.45,35 118,35 c 0.55,0 1,0.198442 1,0.440983 0,0.242541 -0.45,0.719098 -1,1.059017 -0.55,0.339919 -1,0.141476 -1,-0.440983 z M 110.5,34 c -2.54822,-1.09501 0.0808,-1.09501 3.5,0 2.00973,0.643629 2.10779,0.806404 0.5,0.830035 -1.1,0.01617 -2.9,-0.357349 -4,-0.830035 z"
       id="path3171"
       style="fill:#a6665a" />
    <path
       d="M 41.5,137.33837 C 37.247287,135.0964 34.235931,132.1806 30.822811,127 l -2.964722,-4.5 3.320956,3.6872 c 4.742225,5.26521 13.442851,10.79447 17.171444,10.91248 3.024918,0.0957 3.050612,0.13135 0.649511,0.90032 -3.58598,1.14843 -4.163133,1.09752 -7.5,-0.66163 z m 0.5,-5.38399 c -12.577546,-7.7254 -18.612987,-20.33913 -6.889326,-14.3983 6.216803,3.1503 9.942874,3.11119 13.812601,-0.14497 C 54.155479,113.0085 52.729793,108.55958 42.061949,96 17.823731,67.463614 14.397632,49.713943 30.777708,37.539459 33.374969,35.609046 36.111587,33.509357 36.859082,32.873484 40.232034,30.004208 63,31.217661 63,34.266704 c 0,0.521 0.698372,0.679283 1.551938,0.351739 0.853566,-0.327544 1.320173,-0.220531 1.036905,0.237805 -0.283267,0.458337 1.728745,2.75217 4.47114,5.097407 8.007569,6.847902 8.009135,6.889779 0.612086,16.36277 -8.502119,10.888193 -8.99331,11.272404 -11.851617,9.270368 -2.607531,-1.826386 -6.099254,-2.043134 -8.886193,-0.551609 -2.671914,1.429964 -2.537063,7.253391 0.273261,11.800591 1.214137,1.964514 5.723681,7.417629 10.02121,12.118034 10.355045,11.325791 13.13801,16.945711 12.59721,25.438811 -0.469033,7.36602 -3.385692,12.47748 -9.469887,16.59604 -5.25148,3.55486 -16.325442,4.05563 -21.356053,0.96572 z m 36.25,-7.06943 C 76.4625,123.74021 75,122.17279 75,121.4018 c 0,-2.46533 2.415411,-1.50776 5.292632,2.09823 3.184862,3.99155 2.622715,4.37269 -2.042632,1.38492 z m 183.33205,0.24782 c -0.29478,-0.47698 1.3865,-1.13074 3.7362,-1.4528 2.3497,-0.32207 5.15183,-0.83923 6.22696,-1.14926 1.07514,-0.31003 0.15479,0.33193 -2.04521,1.42658 -4.3141,2.14655 -7.06536,2.55499 -7.91795,1.17548 z m -5.85055,-5.15958 c -6.31993,-1.07709 -12.6742,-4.24431 -17.05922,-8.50299 -3.8766,-3.76491 -6.33194,-4.57977 -5.18333,-1.7202 0.3866,0.9625 0.96122,2.38632 1.27692,3.16404 0.34773,0.85663 0.14619,1.14965 -0.51126,0.74332 -0.5969,-0.3689 -2.42583,0.45728 -4.06429,1.83595 -5.44803,4.58422 -5.75067,2.29698 -0.69032,-5.21721 1.925,-2.85846 3.5,-5.46998 3.5,-5.80337 0,-0.3334 1.125,-2.08112 2.5,-3.88384 1.375,-1.802721 2.5,-3.565115 2.5,-3.916435 0,-0.35132 -2.23584,-1.77175 -4.96854,-3.15651 -2.7516,-1.394347 -5.61745,-3.744376 -6.42288,-5.266846 -1.2536,-2.369616 -1.54897,-2.507053 -2.13979,-0.99564 -0.628,1.60657 -1.1039,1.525697 -5.68088,-0.965409 l -4.99546,-2.718868 2.85378,-0.941786 c 9.13637,-3.015133 15.23852,-11.373386 15.75463,-21.579452 0.23123,-4.572581 0.67079,-5.482624 3.95625,-8.190774 8.408,-6.930583 28.94089,-8.818547 39.18304,-3.602814 13.135,6.688896 21.98873,24.573144 19.91951,40.236786 -2.54684,19.279138 -21.25194,33.630918 -39.72816,30.482048 z m 12.99769,-25.533149 c 5.2951,-3.465338 7.24783,-13.284635 3.80194,-19.118063 -6.71288,-11.36399 -24.5062,-6.155779 -24.52299,7.178022 -0.0112,8.887558 6.51163,15.187185 14.49186,13.99599 2.2,-0.328391 5.00314,-1.253568 6.22919,-2.055949 z M 261,91.145119 C 261,89.54824 269.15137,80 270.51463,80 270.78159,80 271,81.609615 271,83.576923 c 0,2.620108 -0.78191,4.358837 -2.92308,6.5 C 264.72137,93.432479 261,93.994185 261,91.145119 z m -10,-9.726164 c 0,-3.082235 3.02852,-7.233246 6.04429,-8.284548 3.53912,-1.233747 3.52731,-1.134663 -0.54429,4.565633 -3.27902,4.590677 -5.5,6.092427 -5.5,3.718915 z M 78.88807,98.75 C 78.740143,75.952255 77.812334,62.7615 76.322143,62.269952 c -0.67302,-0.222 -1.315929,0.810479 -1.5,2.408922 -0.277407,2.408965 -0.87762,2.888599 -4.322143,3.453847 -2.2,0.361022 -4.115335,0.551016 -4.2563,0.422208 -0.140965,-0.128807 3.121535,-4.635028 7.25,-10.013823 C 77.622165,53.16231 81,48.226153 81,47.571868 81,46.917583 80.339312,45.508751 79.531803,44.44113 77.220114,41.384803 77.698467,40.339071 82.25,38.498855 c 6.725375,-2.719115 7.388467,-2.875671 5.301555,-1.251697 -1.602865,1.247303 -0.361331,1.166865 7,-0.453522 9.797465,-2.156632 18.073645,-1.977143 22.751215,0.493415 l 2.80277,1.480343 -3.71652,3.063473 -3.71652,3.063473 3.56945,4.30283 c 1.9632,2.366557 7.6365,8.703172 12.60733,14.081367 l 9.03788,9.778538 -1.43276,4.721462 c -0.78801,2.596805 -1.43762,4.833963 -1.44358,4.971463 -0.0527,1.217078 -2.25393,-0.379958 -4.39774,-3.190634 -2.2845,-2.995127 -2.47306,-3.772577 -1.45625,-6.004226 2.10605,-4.622285 0.0161,-3.905524 -5.17557,1.774988 C 117.35936,82.575535 110.32442,86 102.06193,86 98.194412,86 96,86.412283 96,87.138907 c 0,0.626399 0.920042,6.531357 2.044537,13.122133 1.124496,6.59077 1.86498,12.16278 1.645521,12.38224 -0.503917,0.50391 -16.589138,3.35352 -18.940058,3.35535 -1.594765,10e-4 -1.759929,-1.52881 -1.86193,-17.24863 z m 24.13714,-29.762863 c 6.70902,-3.422685 8.44338,-8.241953 4.76822,-13.249477 -1.1523,-1.570048 -1.32157,-1.367285 -1.55135,1.8583 -0.37826,5.310137 -1.23344,5.947374 -3.33775,2.487124 C 101.79044,58.251429 100.19735,57 98.979515,57 97.85208,57 95.862135,56.300548 94.557416,55.445663 90.661371,52.892877 90.549002,54.399604 93.565195,68.75 c 0.60716,2.888739 4.091254,2.976076 9.460015,0.237137 z M 133.00641,115.25 c 0.006,-0.66241 7.16499,-34.384156 8.46617,-39.877202 0.3843,-1.622371 -2.23241,-5.39939 -11.02601,-15.915168 l -11.5299,-13.787966 3.77459,-3.865535 c 2.07603,-2.126044 5.2417,-4.864219 7.03484,-6.084832 1.79313,-1.220613 3.26331,-3.006797 3.26707,-3.969297 0.0122,-3.131827 1.65341,-1.86202 5.36469,4.150727 3.32442,5.385988 5.10608,9.67695 2.53249,6.099273 -0.90117,-1.252771 -0.98256,-1.202002 -0.4938,0.30803 0.64619,1.996394 9.28073,14.374487 10.59285,15.185416 1.28422,0.793696 10.10805,-6.617969 16.51996,-13.876123 l 5.80125,-6.566897 4.46516,5.724787 c 6.85028,8.782771 7.09752,9.690791 3.64331,13.380361 -3.75002,4.005529 -17.65106,14.411962 -22.67624,16.975619 -3.3646,1.71649 -3.80821,2.334908 -3.35246,4.673534 0.28889,1.4824 0.82483,9.067262 1.19098,16.855248 l 0.66573,14.159975 -11.10506,3.59002 c -11.5819,3.74418 -13.14624,4.08241 -13.13562,2.84003 z m 52.19601,-1.30608 c -4.01367,-1.03658 -7.67368,-2.11714 -8.13337,-2.40125 -0.45969,-0.2841 -0.59755,-9.29743 -0.30636,-20.029609 C 177.24041,73.906387 177.13247,72 175.65788,72 c -1.13335,0 -1.83029,1.225997 -2.27387,4 -0.78449,4.905929 -2.85291,5.237325 -6.53047,1.046293 l -2.59184,-2.953707 3.69525,-2.445402 c 5.55927,-3.678951 17.55607,-14.255017 19.4517,-17.148111 1.63747,-2.49909 1.58348,-2.661213 -2.77033,-8.319321 -2.44219,-3.173809 -5.15989,-6.367729 -6.03933,-7.097601 -2.47344,-2.052771 -1.94442,-2.912048 2.5355,-4.118367 3.2586,-0.87745 5.536,-0.791783 10.75,0.404373 3.63853,0.834723 8.37846,1.80291 10.53318,2.151528 15.25544,2.468222 26.57828,12.708085 26.51648,23.980315 -0.0263,4.798009 -2.05494,10.857462 -4.58907,13.707427 -2.73002,3.070264 -9.26482,5.74565 -14.09508,5.770611 -3.10135,0.01603 -4.25,0.427368 -4.25,1.521962 0,2.598467 3.1722,4.839353 14.78495,10.444298 6.57111,3.171577 11.09437,5.927794 10.83546,6.602512 -0.24445,0.63702 -2.52305,4.40105 -5.06357,8.36452 l -4.61913,7.20631 -10.13287,-9.55882 C 203.37195,97.603667 201.13783,96 198.48815,96 l -3.18382,0 0.48153,10 c 0.55759,11.57939 1.30908,11.01532 -10.58344,7.94392 z M 208.8103,69.701925 c 2.84412,-3.027428 3.753,-7.927787 2.17635,-11.734151 C 209.44704,54.250833 207.28478,53 202.39907,53 c -4.63443,0 -4.16273,0.624218 0.98516,1.303679 5.52788,0.729616 6.07868,2.114656 3.95544,9.946321 C 206.75314,66.413417 205,66.565357 205,64.452773 205,62.993733 196.92088,54 195.61022,54 195.2746,54 195,58.05 195,63 l 0,9 5.82569,0 c 4.78459,0 6.2115,-0.410682 7.98461,-2.298075 z M 200,106.80383 l 0,-6.19616 3.52372,3.41532 c 3.22744,3.12816 3.36095,3.47553 1.58794,4.13141 -1.06468,0.39385 -2.23068,1.64523 -2.59111,2.78084 C 201.2442,114.95669 200,112.91734 200,106.80383 z M 106,109 c -1.2819,-0.82843 -1.24555,-0.9716 0.25,-0.98469 0.9625,-0.008 1.75,0.43469 1.75,0.98469 0,1.21961 -0.11279,1.21961 -2,0 z m -2.46299,-7.25 c -0.22012,-0.6875 -0.55173,-2.825 -0.73691,-4.75 -0.30899,-3.212034 -0.1107,-3.508671 2.41011,-3.605393 3.34179,-0.128223 4.69463,2.843409 2.35815,5.179889 C 106.70576,99.437095 106,100.78571 106,101.57143 c 0,1.75846 -1.91275,1.89714 -2.46299,0.17857 z M 72.53659,97.792655 C 71.494546,96.028615 66.244767,90.008087 60.870416,84.413704 49.067069,72.127116 47.010265,67 53.884703,67 c 4.197062,0 7.125626,3.804865 8.023995,10.424979 0.764777,5.635673 1.820963,7.267023 9.710407,14.998379 C 73.40345,94.171947 75.931899,101 74.795063,101 74.594947,101 73.578634,99.556695 72.53659,97.792655 z M 117,36.059017 C 117,35.476558 117.45,35 118,35 c 0.55,0 1,0.198442 1,0.440983 0,0.242541 -0.45,0.719098 -1,1.059017 -0.55,0.339919 -1,0.141476 -1,-0.440983 z M 110.5,34 c -2.54822,-1.09501 0.0808,-1.09501 3.5,0 2.00973,0.643629 2.10779,0.806404 0.5,0.830035 -1.1,0.01617 -2.9,-0.357349 -4,-0.830035 z"
       id="path3169"
       style="fill:#5a388d" />
    <path
       d="m 41.5,137.33837 c -3.772758,-1.98895 -7.094807,-4.98373 -9.804229,-8.83837 -1.980573,-2.81772 -1.855852,-2.77478 2.052707,0.70669 5.071847,4.51765 11.216367,7.75917 14.961684,7.89299 L 51.5,137.19936 49,138 c -3.58598,1.14843 -4.163133,1.09752 -7.5,-0.66163 z m 1,-5.49793 c -7.437355,-3.85101 -15.423416,-13.02287 -13.430278,-15.42445 0.854058,-1.02908 1.984562,-0.79915 5.647972,1.1487 6.078212,3.23182 11.583849,3.22468 14.827761,-0.0192 4.498373,-4.49837 3.177507,-9.30811 -5.272207,-19.197942 C 27.961771,79.255994 21.994698,68.874995 21.286775,58.357626 c -0.547659,-8.136363 1.002291,-12.581342 6.045916,-17.338618 6.340728,-5.980735 11.464458,-8.251541 19.810313,-8.77981 6.69296,-0.423646 8.340295,-0.16455 13.252643,2.084397 3.085302,1.412498 8.073986,4.898854 11.085965,7.747458 l 5.476324,5.179279 -2.151521,3.124834 c -1.183336,1.718659 -4.591393,6.151901 -7.57346,9.85165 l -5.421939,6.726817 -2.855848,-1.476817 c -4.467084,-2.310018 -8.63278,-1.898476 -10.560296,1.043286 -1.540156,2.350574 -1.532919,2.829905 0.107583,7.125497 1.107229,2.899239 4.86987,7.985742 10.156422,13.729899 C 72.099521,101.97956 75.643173,111.69614 71.104137,121.5 66.086238,132.33815 52.762974,137.15453 42.5,131.84044 z M 60,96.012412 c 0,-0.478255 -0.616646,-1.486201 -1.370325,-2.23988 -0.753679,-0.753679 -2.101109,-2.783505 -2.994289,-4.510724 -0.89318,-1.72722 -2.626661,-3.842716 -3.852181,-4.701104 -1.22552,-0.858387 -1.79059,-1.567595 -1.255711,-1.576017 0.534878,-0.0084 0.456067,-0.345922 -0.175137,-0.75 C 48.472032,81.030958 44,71.893563 44,69.255353 44,65.426568 47.131735,61.024583 50.484633,60.140515 53.807847,59.264274 57,59.742514 57,61.116631 57,61.602484 58.151558,62 59.559017,62 61.010384,62 61.850523,61.567158 61.5,61 61.160081,60.45 61.385081,60 62,60 c 0.614919,0 0.871431,-0.399012 0.570027,-0.886693 -0.301403,-0.487681 0.130344,-1.449674 0.959438,-2.137761 0.829094,-0.688087 2.219256,-2.751101 3.089249,-4.584475 1.972292,-4.156295 1.399298,-4.804743 -9.117958,-10.31865 -1.649585,-0.864832 -3.224585,-1.857636 -3.5,-2.206232 -0.275416,-0.348596 -4.09987,-0.812977 -8.498786,-1.031958 -7.739439,-0.385274 -8.073788,-0.308114 -10.341151,2.386494 -1.288717,1.531552 -2.763252,2.524985 -3.276747,2.207628 -0.513494,-0.317357 -0.809976,-0.206064 -0.658849,0.247317 0.151128,0.453382 -0.101065,0.82433 -0.560427,0.82433 -0.459362,0 -1.450138,1.4625 -2.201726,3.25 -0.751587,1.7875 -1.775843,3.25 -2.276124,3.25 -0.500281,0 -0.685395,1.172865 -0.411364,2.606368 0.296614,1.551634 -0.03226,2.934232 -0.81268,3.41656 -1.035622,0.640049 -0.749368,2.061498 1.363089,6.768678 C 27.796696,67.068773 29,70.218821 29,70.791712 c 0,0.572892 0.361231,1.191621 0.802735,1.374955 C 30.24424,72.35 32.259217,75.2 34.280464,78.5 36.30171,81.8 40.209142,86.8625 42.963646,89.75 47.771205,94.789684 50,96.135889 50,94 c 0,-0.55 0.919727,-1 2.043837,-1 1.365469,0 1.946309,0.558785 1.75,1.68355 -0.189389,1.085108 0.594824,1.917774 2.206163,2.342474 2.686975,0.708206 4,0.375481 4,-1.013612 z M 57.5,96 C 57.160081,95.45 57.358524,95 57.940983,95 58.523442,95 59,95.45 59,96 59,96.55 58.801558,97 58.559017,97 58.316476,97 57.839919,96.55 57.5,96 z m 20.75,28.88495 c -3.270792,-2.09467 -3.962777,-3.3264 -2.408452,-4.28702 0.462851,-0.28606 2.351126,1.03738 4.196167,2.94098 3.77906,3.899 3.052687,4.44592 -1.787715,1.34604 z m 183.33205,0.24782 c -0.29478,-0.47698 1.3865,-1.13074 3.7362,-1.4528 2.3497,-0.32207 5.15183,-0.83923 6.22696,-1.14926 1.07514,-0.31003 0.15479,0.33193 -2.04521,1.42658 -4.3141,2.14655 -7.06536,2.55499 -7.91795,1.17548 z M 248.5,117.50189 c -4.00403,-1.6354 -7.59931,-4.11783 -10.80763,-7.46233 l -4.80763,-5.01169 3.02931,-4.40295 3.02931,-4.402948 -5.69731,-2.860986 C 228.60298,91.0294 227.40016,89.898616 226.74578,87.25 225.78975,83.380472 224,82.933314 224,86.563985 l 0,2.563984 -4,-2.248125 c -2.2,-1.236469 -4,-2.526714 -4,-2.86721 0,-0.340496 2.2057,-1.719048 4.90155,-3.06345 C 228.09048,77.364118 232.95787,68.538591 233.0068,59 c 0.0146,-2.83927 0.62916,-3.894487 3.25558,-5.589664 10.54387,-6.805352 28.61481,-8.960645 38.0249,-4.535173 9.08877,4.274354 15.72774,12.202764 19.19155,22.918971 2.54549,7.875165 1.84084,22.037675 -1.42696,28.679786 -3.30521,6.71815 -9.33041,12.50976 -17.00298,16.34379 -8.33413,4.16461 -17.45229,4.39959 -26.54889,0.68418 z M 278.4626,97.939479 C 278.14325,97.422766 279.03352,97 280.44098,97 c 1.40746,0 2.61527,-0.45 2.68402,-1 0.18294,-1.463539 0.44407,-2.271368 1.45458,-4.5 0.96107,-2.119575 1.18431,-18.250811 0.31197,-22.542302 -0.28423,-1.398266 -0.85267,-3.085766 -1.26319,-3.75 -0.41051,-0.664234 -0.42531,-1.727227 -0.0329,-2.362206 0.44208,-0.7153 0.27432,-0.883063 -0.44098,-0.440984 C 282.51953,62.796948 282,62.623255 282,62.018524 c 0,-1.935257 -4.36267,-7.07955 -7.81155,-9.211074 -3.56411,-2.202741 -9.15809,-2.102905 -18.84517,0.33633 -6.55871,1.651502 -18.43702,14.563602 -16.95366,18.429167 0.27032,0.704455 -0.1518,1.814716 -0.93805,2.467247 -1.80221,1.495704 -0.94593,3.030834 1.33046,2.385202 0.94488,-0.267991 0.59297,0.08056 -0.78203,0.774567 -4.17151,2.105484 -5.08181,3.894973 -4.42873,8.706149 0.32895,2.423361 1.30168,5.109693 2.16161,5.969625 1.41802,1.418017 1.70066,1.356961 3.03729,-0.656112 C 239.58075,89.998831 240.89061,89 241.68099,89 c 0.79037,0 1.1774,-0.420108 0.86006,-0.933574 -0.31734,-0.513466 0.0818,-2.845738 0.88701,-5.182828 0.80519,-2.337089 1.26182,-4.576372 1.01472,-4.976184 -0.6859,-1.109801 0.65454,-3.965299 1.59001,-3.38715 0.45277,0.279828 1.09775,-0.356185 1.43328,-1.413362 0.33554,-1.057177 1.29646,-2.185533 2.13538,-2.507458 0.83892,-0.321925 1.20915,-1.096876 0.82274,-1.722113 -0.42757,-0.691822 -0.16231,-0.956703 0.67769,-0.676706 0.75914,0.253049 2.0048,-0.164451 2.76813,-0.927778 0.76333,-0.763327 2.04165,-1.136988 2.84072,-0.830357 0.79906,0.30663 3.43974,0.55751 5.86818,0.55751 3.6332,0 5.09487,0.613926 8.25154,3.465789 2.10992,1.906184 3.91984,4.043684 4.02205,4.75 C 276.01265,83.233113 276.38046,90 275.65608,90 c -0.48914,0 -0.65311,0.903373 -0.36437,2.007497 0.34689,1.326515 -0.19785,2.513782 -1.60588,3.5 C 272.15806,96.577595 271.98588,97 273.07749,97 c 0.83738,0 2.00769,-0.48518 2.60069,-1.078178 0.593,-0.592997 2.3705,-0.885422 3.95,-0.649832 l 2.87182,0.428346 -3.14301,0.149832 c -3.4457,0.164262 -5.3622,2.648503 -2.22551,2.884783 1.05146,0.0792 1.65046,-0.278758 1.33112,-0.795472 z M 266.36422,95.62118 c 7.1055,-2.968869 10.44328,-12.009908 7.06336,-19.132551 -4.42766,-9.330607 -17.28289,-10.118057 -23.46413,-1.437301 -3.06419,4.303257 -2.47557,13.696749 1.09937,17.544335 4.19901,4.519257 9.30844,5.529535 15.3014,3.025517 z M 261,91.145119 C 261,89.54824 269.15137,80 270.51463,80 270.78159,80 271,81.609615 271,83.576923 c 0,2.620108 -0.78191,4.358837 -2.92308,6.5 C 264.72137,93.432479 261,93.994185 261,91.145119 z M 251.54755,79.75 c 0.96174,-3.171418 4.46756,-6.75 6.61274,-6.75 1.53492,0 1.31735,0.677926 -1.42432,4.438102 -3.53524,4.848552 -6.33615,6.096602 -5.18842,2.311898 z M 226,116.97856 C 226,115.58471 231.08228,108 232.01625,108 c 0.41277,0 1.02826,0.7875 1.36776,1.75 0.3395,0.9625 0.90037,2.37514 1.24637,3.1392 0.37373,0.82531 0.20489,1.12702 -0.41598,0.74331 -0.57478,-0.35524 -2.38562,0.48213 -4.02408,1.8608 C 226.95324,118.21714 226,118.55501 226,116.97856 z M 79.626792,114.46982 C 79.282057,113.57145 78.95116,102.86073 78.891466,90.668213 78.831773,78.475696 78.473093,65.8 78.0944,62.5 77.464786,57.013423 77.309894,56.713926 76.284289,59 c -0.616869,1.375 -1.371657,3.294254 -1.677308,4.265008 -0.305651,0.970754 -1.795603,2.236407 -3.311003,2.812561 -1.515401,0.576154 -3.095042,1.581901 -3.510313,2.234992 C 67.370393,68.965653 67.042163,69.05 67.056263,68.5 c 0.0141,-0.55 1.24471,-2.62014 2.734688,-4.60031 C 82.590444,46.889242 82.076842,47.766221 80.578625,45.479653 79.085042,43.200158 79.553747,41.754708 82,41.096238 c 0.825,-0.22207 5.038484,-1.45957 9.363298,-2.75 9.407792,-2.807081 19.268802,-3.089186 24.313012,-0.69555 l 3.47857,1.650689 -2.82744,2.313348 c -1.55509,1.272342 -3.47595,2.329532 -4.26857,2.349312 -1.0142,0.02531 -0.86607,-0.398987 0.5,-1.432234 3.01164,-2.277892 0.37275,-2.269729 -16.05887,0.04968 -6.084096,0.858799 -7.5,1.4225 -7.5,2.985905 C 89,46.355324 88.376754,47 87.61501,47 c -0.761745,0 -2.122118,1.125 -3.023053,2.5 -1.042918,1.591694 -1.221878,2.5 -0.492565,2.5 0.788067,0 0.83054,0.390038 0.136117,1.25 -0.555158,0.6875 -1.370018,3.275 -1.810799,5.75 -1.061053,5.95785 -1.147274,25.999868 -0.111852,25.999942 0.447072,3.2e-5 0.683304,0.787558 0.524959,1.750058 -0.484471,2.944855 1.100386,4.25 5.160835,4.25 3.762426,0 3.89007,-0.114213 4.190983,-3.75 L 92.5,83.5 l 7,-0.647605 c 9.87967,-0.914018 12.42958,-1.688735 17.21908,-5.231535 3.92166,-2.900859 5.87443,-5.546087 3.03092,-4.105704 -0.6875,0.348255 -0.0125,-0.337721 1.5,-1.524389 1.5125,-1.186669 2.75,-2.739947 2.75,-3.451729 0,-0.711782 0.69548,-1.871345 1.54551,-2.576807 0.85003,-0.705462 1.28973,-1.949212 0.97711,-2.763888 -0.49062,-1.278533 -0.3258,-1.29082 1.20449,-0.08979 3.32821,2.612128 10.22626,10.15786 9.85047,10.775371 -0.20621,0.33884 -0.88786,2.528573 -1.51479,4.866073 -0.62693,2.3375 -1.51912,4.25 -1.98265,4.25 -0.46352,0 -2.03731,-1.566136 -3.49732,-3.480302 -2.55811,-3.35386 -2.59655,-3.592471 -1.05795,-6.567791 2.11283,-4.085771 1.36558,-6.074838 -1.09767,-2.921805 -4.16068,5.32581 -11.14055,11.607734 -14.93782,13.444138 -2.26313,1.094475 -6.91019,2.107187 -10.73938,2.340382 -7.644112,0.465522 -7.697683,0.557695 -5.745827,9.886157 0.552295,2.639572 1.37406,7.584264 1.826145,10.988194 l 0.821974,6.18898 -7.076146,1.11576 c -3.89188,0.61367 -8.256589,1.33935 -9.699354,1.61263 -1.828573,0.34636 -2.813078,0.002 -3.25,-1.13652 z M 133.01478,115.25 c 0.008,-0.4125 0.70612,-3.675 1.55108,-7.25 0.84497,-3.575 2.90011,-12.94891 4.56698,-20.830912 2.60737,-12.329192 2.83756,-14.564047 1.64803,-16 C 140.0204,70.25109 136.71004,66.35 133.42451,62.5 123.51603,50.889194 119.82575,46.021123 120.1714,45.017025 c 0.76601,-2.225189 12.22859,-10.929487 13.256,-10.066161 0.58993,0.495709 4.6726,5.876451 9.0726,11.957205 4.4,6.080754 8.39991,11.06402 8.88868,11.073924 1.75656,0.03559 14.77075,-11.377043 17.82774,-15.633823 C 170.93386,39.956677 172.63744,38 173.00216,38 c 0.87007,0 5.98601,6.489123 8.92279,11.317802 l 2.32198,3.817802 -5.37347,4.939193 c -6.33232,5.820557 -18.37544,14.349869 -21.74079,15.397505 -2.22223,0.691781 -2.33154,1.082976 -1.78337,6.382324 0.32117,3.104956 0.88057,10.858601 1.2431,17.230323 l 0.65914,11.584951 -11.43591,3.66505 c -12.27056,3.93255 -12.82338,4.05844 -12.80085,2.91505 z M 151,85.998342 c 1.33333,-0.02575 1.33333,-0.136676 0,-0.998342 -1.07093,-0.692087 -1.12926,-0.973755 -0.20392,-0.984687 0.89545,-0.01058 1.22648,-1.359784 1.07092,-4.364911 -0.16339,-3.156441 0.30402,-4.899886 1.70392,-6.355647 C 156.53134,70.216215 166.03344,64 167.77888,64 c 0.85495,0 1.30076,-0.253692 0.99069,-0.56376 -0.31006,-0.310068 1.52744,-2.58192 4.08334,-5.04856 4.25501,-4.106417 4.48992,-4.574593 2.78425,-5.549076 -1.02456,-0.585353 -2.64542,-1.846868 -3.60192,-2.803367 -1.65212,-1.65212 -1.79814,-1.644537 -2.91987,0.151639 -0.64943,1.039902 -1.58841,1.638804 -2.08662,1.330895 -0.4982,-0.30791 -1.27099,0.01479 -1.71729,0.717101 -1.88674,2.969033 -12.12213,9.609794 -14.42217,9.357168 -3.13936,-0.34481 -6.77836,-2.66718 -7.43853,-4.747184 -0.28979,-0.913051 -1.21329,-1.923487 -2.05221,-2.245412 -0.83892,-0.321925 -1.24523,-1.038497 -0.90292,-1.592381 C 140.83795,52.453178 140.4835,52 139.70796,52 c -0.77555,0 -3.5021,-1.112339 -6.05902,-2.471865 C 130.07926,47.630116 129,47.390679 129,48.49675 c 0,0.915663 -0.58889,1.214503 -1.61633,0.820235 -1.34421,-0.515822 -1.43746,-0.286005 -0.55384,1.365046 C 128.09211,53.040622 135.10604,60 136.22084,60 136.64938,60 137,60.567098 137,61.260218 c 0,0.69312 1.125,2.473481 2.5,3.956356 1.375,1.482876 2.5,3.165778 2.5,3.739782 C 142,69.53036 142.375,70 142.83333,70 c 0.80338,0 0.99278,0.674104 1.40477,5 0.10476,1.1 0.54786,2 0.98466,2 0.4368,0 0.22787,0.913731 -0.46429,2.030513 -1.02455,1.653082 -1.00628,2.187485 0.0983,2.875 0.90148,0.561105 1.00003,1.064963 0.29368,1.501512 -1.89754,1.172743 -0.052,3.801709 2.23747,3.187198 C 148.54956,86.28242 150.175,86.014274 151,85.998342 z m 33.56343,27.630548 -7.93656,-2.21897 0.26772,-20.70496 C 177.08363,76.085091 176.83729,70 176.0564,70 174.71084,70 173,74.234619 173,77.5651 c 0,3.464811 -3.33397,3.178993 -5.96153,-0.511076 l -2.09772,-2.945975 4.62836,-3.304025 C 176.24831,66.035978 189,53.926767 189,52.352134 c 0,-0.738134 -2.25,-4.134285 -5,-7.547003 -2.75,-3.412717 -5,-6.727277 -5,-7.365689 0,-1.60687 17.46519,-0.799251 26.20677,1.211845 14.49569,3.334889 23.26868,12.104985 23.251,23.243335 -0.0178,11.219812 -6.5581,18.100672 -17.20777,18.103824 -4.78186,0.0014 -5.24863,0.202186 -5.23469,2.251554 0.0247,3.635322 0.99363,4.396179 12.51463,9.8276 6.03353,2.844427 11.50111,5.594595 12.15017,6.111484 0.86423,0.688241 -0.0726,2.928726 -3.5,8.370286 -2.57406,4.08677 -5.10335,7.43277 -5.62063,7.43556 -0.51729,0.003 -5.32509,-4.30269 -10.68401,-9.56772 -8.28509,-8.139935 -10.16499,-9.524475 -12.55948,-9.25 L 195.5,95.5 l 0.0501,10.25 c 0.0578,11.82338 0.91721,11.20708 -10.98669,7.87889 z m 5.07341,-26.132879 c -0.48062,-1.252472 0.29585,-1.429602 4.64301,-1.059179 2.87108,0.244645 6.23265,0.748924 7.47015,1.12062 1.39349,0.418549 2.25,0.250741 2.25,-0.440821 C 204,86.502484 203.64476,86 203.21058,86 c -1.519,0 -0.69422,-5.515108 1.06812,-7.142184 0.97828,-0.903201 4.77045,-2.206687 8.42704,-2.896637 10.44736,-1.971276 13.26394,-5.886446 12.45881,-17.318312 -0.18523,-2.630088 -3.14511,-8.322398 -3.17986,-6.115373 -0.008,0.534878 -0.34592,0.470456 -0.75,-0.14316 -1.0011,-1.520218 -8.0598,-4.99653 -11.73469,-5.779165 -1.65,-0.351398 -4.125,-0.919483 -5.5,-1.262411 -5.91079,-1.474165 -14,-0.98578 -14,0.845248 0,1.223603 3.03744,4.270634 4.43265,4.446644 0.58704,0.07406 2.52985,0.186558 4.31735,0.25 C 203.14481,51.040632 202.91325,53 198.5,53 l -3.5,0 0,9.5 0,9.5 5.41821,0 c 6.86993,0 8.31373,-0.580946 10.11878,-4.071521 2.27531,-4.399975 1.84411,-9.322122 -1.12588,-12.851754 C 207.44498,52.740123 207.19576,52 208.37506,52 c 2.61925,0 6.62891,6.984482 6.59167,11.482135 -0.0389,4.697933 -1.83506,7.120288 -7.61574,10.270807 -9.31137,5.074779 -16.78945,2.206996 -16.8306,-6.454398 -0.0228,-4.792335 -1.47625,-5.504872 -5.15335,-2.526308 -3.62418,2.935697 -4.50198,5.91277 -4.28374,14.528251 l 0.20772,8.199513 3.10449,0.618359 c 5.23612,1.042941 5.85229,0.969778 5.24133,-0.622348 z M 205.0318,64.673077 c -0.0175,-1.004808 -1.32523,-3.120354 -2.90609,-4.701213 -4.56947,-4.569472 -4.65609,-5.880862 -0.32389,-4.903792 5.70655,1.287036 7.78326,5.454 4.72998,9.490798 -1.3818,1.826909 -1.47006,1.833629 -1.5,0.114207 z M 200,106.80383 l 0,-6.19616 3.52372,3.41532 c 3.22744,3.12816 3.36095,3.47553 1.58794,4.13141 -1.06468,0.39385 -2.23068,1.64523 -2.59111,2.78084 C 201.2442,114.95669 200,112.91734 200,106.80383 z M 106,109 c -1.2819,-0.82843 -1.24555,-0.9716 0.25,-0.98469 0.9625,-0.008 1.75,0.43469 1.75,0.98469 0,1.21961 -0.11279,1.21961 -2,0 z m -2.57118,-8.42756 c -0.3351,-1.335163 -0.19737,-3.163598 0.30607,-4.063192 1.36907,-2.446407 3.22655,0.267928 2.55987,3.740752 -0.65279,3.40049 -2.05383,3.55811 -2.86594,0.32244 z M 72,96.832632 C 70.625,94.570167 65.849133,89.069771 61.386962,84.60953 56.924791,80.149288 52.499973,75.284533 51.554034,73.798963 c -3.721615,-5.844687 1.528328,-9.212678 7.010282,-4.497299 2.0703,1.780797 2.757977,3.398754 3.038783,7.14961 0.405614,5.41799 1.251789,6.936154 7.754459,13.912666 2.49347,2.675166 4.81883,6.162666 5.167467,7.75 0.348637,1.587333 0.485631,2.87396 0.30443,2.85916 C 74.648255,100.95831 73.375,99.095097 72,96.832632 z m 35.62354,-1.371291 c -0.96498,-2.514694 -0.68031,-3.163555 0.49853,-1.136338 0.58369,1.003751 0.8506,2.035659 0.59313,2.293128 -0.25747,0.257469 -0.74872,-0.263087 -1.09166,-1.15679 z M 91,71 c -0.588702,-1.1 -0.666937,-2 -0.173856,-2 0.493082,0 0.698684,-1.2375 0.456895,-2.75 -0.343622,-2.149504 -0.207503,-2.422457 0.623359,-1.25 0.584637,0.825 1.069867,2.7375 1.078289,4.25 0.01784,3.204217 0.910686,3.345722 7.323443,1.160677 C 105.30792,68.707075 110,64.089947 110,60.873615 110,55.220938 105.24448,51 98.875883,51 c -1.944165,0 -2.7527,-0.390297 -2.30596,-1.113137 0.430486,-0.696542 2.762373,-0.941111 6.230767,-0.653485 4.62883,0.383859 5.92591,0.938422 7.86609,3.363137 2.80895,3.510432 3.02786,8.531496 0.58167,13.341494 -1.34977,2.654075 -2.88855,3.833507 -6.74845,5.172496 C 97.43752,73.560461 92.348021,73.518801 91,71 z M 102.76954,59.921174 C 101.6379,57.94939 100.30017,57 98.653499,57 97.311762,57 95.932366,56.266132 95.588175,55.369183 95.047562,53.96037 95.543485,53.828777 99.231186,54.402513 103.63794,55.08812 106,57.087534 106,60.132113 c 0,2.954629 -1.46871,2.858727 -3.23046,-0.210939 z M 90.194949,58.5 c -0.02038,-1.65 0.187065,-2.446064 0.460988,-1.769032 0.273923,0.677033 0.290597,2.027033 0.03705,3 C 90.439447,60.703936 90.215328,60.15 90.194949,58.5 z M 111.94845,48.159343 c -1.3204,-1.0692 -1.84688,-2.104084 -1.25614,-2.46918 0.55933,-0.345687 2.06082,0.482609 3.33664,1.840657 2.70304,2.877253 1.24175,3.318713 -2.0805,0.628523 z"
       id="path3167"
       style="fill:#482670" />
    <path
       d="m 40.5,136.12297 c -1.65,-1.02825 -4.349057,-3.38907 -5.997904,-5.24626 L 31.504192,127.5 l 3.497904,3.15041 c 1.923847,1.73273 5.072904,4.09355 6.997904,5.24626 1.925,1.15272 3.05,2.09585 2.5,2.09585 -0.55,0 -2.35,-0.84129 -4,-1.86955 z m 1.60506,-4.75791 C 35.772107,128.20922 27.379,118.45319 29.155484,116.31265 c 1.292824,-1.55775 2.959232,-0.77517 2.255333,1.05916 -0.539411,1.40568 1.465924,3.56406 3.05965,3.29315 0.533757,-0.0907 1.521896,0.9411 2.195864,2.29294 1.2442,2.49562 5.333669,4.80337 5.333669,3.00988 0,-0.53228 0.3375,-0.87353 0.75,-0.75833 0.4125,0.11519 2.1,-0.52616 3.75,-1.42522 l 3,-1.63467 -2.5,-1.01139 c -1.628197,-0.6587 -1.915126,-1.0335 -0.822804,-1.07478 1.970106,-0.0745 8.16704,-7.21578 6.956647,-8.01681 -0.454244,-0.30062 -1.118698,-1.74399 -1.476565,-3.2075 -0.357866,-1.4635 -5.39651,-8.4385 -11.196987,-15.499999 C 18.96833,67.174787 15.476491,50.716552 29.115347,39.866462 35.872912,34.49063 41.388438,32.49822 49.47508,32.51178 c 8.55352,0.01434 14.221824,2.486709 21.832498,9.522765 6.031056,5.575703 6.191376,4.767838 -3.391486,17.089999 -4.405172,5.664409 -5.789394,6.838675 -7.416092,6.291234 -1.1,-0.370189 -4.099785,-0.881067 -6.666189,-1.135285 -4.037742,-0.399963 -4.824486,-0.166434 -5.841537,1.733943 -2.639276,4.931533 0.336089,10.677419 12.231003,23.619945 3.606295,3.923909 7.729543,9.135344 9.162774,11.580969 7.047904,12.02634 2.554132,26.02236 -10.045402,31.28678 -5.384934,2.24997 -11.209839,1.86569 -17.235589,-1.13707 z M 60.5,104.4141 c 2,-0.45515 2,-0.45515 0,0.49509 -1.1,0.52263 -1.458674,0.98187 -0.797053,1.02052 4.448788,0.25994 8.384514,-4.9147 4.787778,-6.294896 C 63.660623,99.316275 63.095374,98.70563 63.234614,98.277826 63.541832,97.333925 60.85189,93.440335 55.5,87.082261 53.3,84.46865 50.569648,81.221992 49.432551,79.867466 48.295454,78.512941 47.566334,76.800999 47.812283,76.063151 48.067508,75.297477 47.800496,75.005267 47.190253,75.382417 46.15155,76.024371 45.991413,75.336779 45.936711,70 c -0.04873,-4.754492 1.021263,-6.789699 4.141502,-7.877421 2.545202,-0.887262 3.774556,-0.728176 6.969846,0.901939 l 3.879577,1.979212 1.248634,-2.251865 C 62.863019,61.513339 63.291801,60.05 63.129119,59.5 c -0.162682,-0.55 0.03885,-0.665363 0.447853,-0.256361 0.829625,0.829625 2.159801,-0.856388 5.266672,-6.675571 1.519385,-2.845812 1.80714,-4.283922 1.041721,-5.206195 -0.58165,-0.700845 -0.724276,-1.813504 -0.316946,-2.472577 0.49185,-0.79583 0.315276,-0.93545 -0.525714,-0.415689 -0.696471,0.430443 -1.5535,0.342287 -1.904508,-0.195902 C 66.787188,43.739516 64.003029,41.9187 60.951175,40.231448 54.574313,36.705927 47.045973,35.068616 42.024707,36.1152 c -1.911412,0.398396 -3.79665,0.525747 -4.189418,0.283003 -1.093802,-0.676007 -9.149429,7.548391 -12.326535,12.584784 -4.507275,7.144998 -3.804462,12.431498 3.254668,24.481326 0.955118,1.630372 2.30067,3.576607 2.990115,4.324966 0.689445,0.748358 2.700635,3.464418 4.469311,6.035687 1.768676,2.571268 4.307794,5.687534 5.642486,6.925034 1.334691,1.2375 2.170617,2.25 1.857612,2.25 -0.313005,0 0.633785,1.250661 2.103977,2.779247 1.470192,1.528585 4.023077,4.470543 5.673077,6.537683 2.251058,2.82016 3.499295,3.60789 5,3.15538 1.1,-0.33168 2.9,-0.80788 4,-1.05821 z m -27.896994,14.75257 c -0.283266,-0.45834 0.120382,-0.83334 0.896994,-0.83334 0.776612,0 1.18026,0.375 0.896994,0.83334 C 34.113729,119.625 33.710081,120 33.5,120 c -0.210081,0 -0.613729,-0.375 -0.896994,-0.83333 z M 249.302,117.94764 C 243.67521,115.73003 234,107.74394 234,105.31711 c 0,-1.73607 5.10926,-9.264095 6.30902,-9.295759 C 240.75398,96.009608 240.83992,96.45 240.5,97 c -0.33992,0.55 -0.1556,1 0.4096,1 0.5652,0 0.78421,0.634346 0.48669,1.409658 -0.32522,0.847512 0.28547,1.671952 1.53139,2.067392 1.13978,0.36175 2.07232,1.10569 2.07232,1.6532 0,0.5475 0.7875,0.91536 1.75,0.81745 3.05704,-0.31096 3.52718,0.0134 2.25,1.5523 -0.75377,0.90823 -0.83434,1.5 -0.20423,1.5 0.57236,0 1.86496,0.30925 2.87244,0.68723 1.53544,0.57605 1.63348,0.44286 0.60604,-0.82325 -1.05273,-1.29726 -0.79723,-1.44758 1.81005,-1.06492 1.70344,0.25002 2.8495,0.94049 2.6113,1.57325 -0.29447,0.78223 2.93749,1.22958 10.55002,1.4603 7.21908,0.21879 10.76079,-0.0132 10.34993,-0.67801 -0.34352,-0.55583 0.16944,-1.27544 1.13993,-1.59913 0.97049,-0.32368 2.88952,-1.52013 4.26452,-2.65877 1.375,-1.13864 1.94265,-1.78283 1.26145,-1.43154 -0.81795,0.42182 -1.0363,0.1117 -0.64301,-0.91322 C 283.94599,100.69837 284.61583,100 285.10699,100 285.59814,100 286,99.154956 286,98.122124 c 0,-1.032832 0.675,-3.493378 1.5,-5.467881 0.825,-1.974503 1.5,-6.290336 1.5,-9.59074 0,-5.262774 0.21521,-5.931503 1.75,-5.437786 1.41286,0.454496 1.47307,0.366594 0.31251,-0.456278 -0.79062,-0.560573 -1.53531,-2.290523 -1.65487,-3.844332 -0.11957,-1.553809 -0.68146,-4.016337 -1.24867,-5.472284 -0.56721,-1.455948 -0.76001,-2.918448 -0.42846,-3.25 C 288.06206,64.27127 287.78178,64 287.10765,64 c -0.67413,0 -0.97132,-0.411565 -0.66044,-0.91459 0.31089,-0.503024 0.20869,-1.065524 -0.2271,-1.25 -0.4358,-0.184475 -1.82301,-1.803201 -3.0827,-3.597168 -1.25969,-1.793967 -2.77546,-2.961938 -3.36839,-2.595492 -0.59292,0.366447 -0.82062,0.249754 -0.50599,-0.259317 0.31462,-0.509072 -1.13133,-1.858611 -3.21322,-2.998976 -3.03857,-1.664389 -5.34014,-2.037328 -11.66754,-1.89057 -9.95707,0.230945 -12.90804,1.039545 -17.88227,4.899954 -4.88275,3.789413 -7.06596,6.256332 -8.72264,9.856159 -0.69607,1.5125 -1.56618,2.75 -1.93357,2.75 -0.3674,0 -0.96986,1.786753 -1.33882,3.970563 -0.36895,2.183809 -1.52975,5.062514 -2.57955,6.397121 -1.51423,1.925037 -1.79097,3.427824 -1.33897,7.27108 0.31336,2.664486 1.06034,5.435639 1.65994,6.158117 0.89421,1.077458 0.61398,1.096621 -1.55888,0.106601 C 228.00304,90.680353 227.66532,90.063822 226.4952,84.25 225.62623,79.932461 224,80.095397 224,84.5 c 0,3.837445 -1.27097,4.376109 -4.5,1.9072 -1.96289,-1.500815 -1.93879,-1.584273 1.29837,-4.497319 1.8141,-1.632469 3.63818,-2.758114 4.0535,-2.501433 2.18661,1.351402 10.30685,-19.724587 8.63918,-22.422921 -0.28802,-0.466032 -0.0663,-1.129982 0.49264,-1.475446 0.55897,-0.345463 1.01631,-0.06737 1.01631,0.617993 0,0.68536 1.2375,0.08643 2.75,-1.330964 4.10052,-3.842669 10.16296,-6.549268 17.55148,-7.835922 15.37834,-2.678024 28.94511,4.813384 36.0159,19.887562 2.67111,5.694532 3.17731,8.059357 3.51914,16.440633 0.38083,9.337621 0.25494,10.08253 -2.72798,16.141698 -6.26117,12.718249 -16.864,19.872109 -30.10854,20.314609 -5.6513,0.1888 -8.78127,-0.2544 -12.698,-1.79805 z m -22.29688,-1.5078 c 0.003,-0.51691 1.09688,-2.73984 2.43123,-4.93984 1.99638,-3.29148 2.54639,-3.68851 3.10516,-2.24143 0.46805,1.21215 -0.28738,2.74706 -2.43123,4.93984 -1.71065,1.7497 -3.10797,2.75834 -3.10516,2.24143 z M 79.952659,109.26905 C 79.926621,105.54607 79.711416,100.25 79.474425,97.5 79.177774,94.057718 79.343524,92.967315 80.006453,94 c 0.529607,0.825 0.969812,2.094643 0.978234,2.821429 0.02096,1.808443 2.786865,4.437791 3.927022,3.733141 0.509878,-0.31513 1.679168,0.17916 2.598422,1.09842 1.252273,1.25227 1.859657,1.36671 2.42226,0.4564 0.41299,-0.66823 1.159652,-1.13792 1.65925,-1.04376 2.950591,0.55613 3.321258,-0.23471 2.96014,-6.31563 -0.204137,-3.4375 -0.524299,-7.146541 -0.71147,-8.242313 -0.308346,-1.80518 0.411108,-2.059926 7.659689,-2.712157 4.4,-0.395915 8.7875,-0.919745 9.75,-1.164068 2.96226,-0.751945 1.93875,0.391727 -1.71788,1.919565 C 107.62478,85.347962 103.58603,86 100.55712,86 l -5.50712,0 0.543515,3.25 c 0.298933,1.7875 0.947762,5.275 1.441842,7.75 0.494079,2.475 1.184053,7.03912 1.533274,10.14248 l 0.634948,5.64248 -7.351789,1.15242 c -4.043485,0.63383 -8.36429,1.36579 -9.60179,1.62657 -2.155017,0.45414 -2.251998,0.1884 -2.297341,-6.2949 z m 53.596821,4.10743 c 1.87875,-8.30035 2.66333,-10.31406 5.00158,-12.83707 2.50827,-2.706473 2.59053,-2.722275 4.67066,-0.897203 1.99832,1.753303 2.08039,1.756443 1.4593,0.05585 -0.36616,-1.002569 -0.25023,-1.549853 0.26134,-1.233688 0.50569,0.312537 1.20312,0.109258 1.54983,-0.451732 0.34671,-0.560991 1.68537,-0.755196 2.97481,-0.431568 3.15505,0.791866 3.86749,-1.619337 3.9599,-13.401999 l 0.0731,-9.320924 4,-2.900139 c 2.2,-1.595076 4.54351,-3.36316 5.20779,-3.929075 C 163.37208,67.463022 164.52922,67 165.27921,67 c 0.75,0 4.35851,-2.823178 8.01892,-6.273729 l 6.65529,-6.273729 -1.85925,-2.976271 C 175.97854,48.0896 172,44.520839 172,46.009787 172,46.554404 171.34818,47 170.55152,47 c -0.79666,0 -2.55045,1.0125 -3.8973,2.25 -12.06152,11.082219 -17.34336,12.925758 -21.00817,7.332551 -2.6313,-4.015873 -8.91882,-9.669682 -12.34597,-11.101634 -2.50519,-1.046738 -3.87851,-1.088854 -6.25502,-0.191824 -1.67478,0.63216 -3.04506,1.66237 -3.04506,2.289355 0,0.626984 1.8,3.18488 4,5.684212 2.2,2.499332 4,5.049242 4,5.666467 0,0.617224 -2.78888,-2.118122 -6.19752,-6.078549 l -6.19751,-7.200775 5.8594,-5.324901 c 3.22268,-2.928696 6.34906,-5.309672 6.94752,-5.291058 0.59846,0.01861 4.89737,5.193615 9.55313,11.5 C 146.62078,52.84023 150.91811,58 151.51463,58 c 1.95572,0 12.78656,-9.388879 16.92951,-14.675606 2.23072,-2.846584 4.28086,-5.203521 4.55586,-5.237638 0.275,-0.03412 2.88726,3.15431 5.80502,7.085394 l 5.30503,7.147425 -4.79489,4.868088 c -4.65523,4.726293 -15.82221,12.84241 -21.65455,15.73844 l -2.87204,1.426103 0.62088,9.573897 c 0.34148,5.265643 0.87658,12.956193 1.1891,17.090107 l 0.56822,7.51622 -10.83338,3.41858 c -5.95837,1.88022 -11.41875,3.61734 -12.13419,3.86027 -0.95999,0.32596 -1.13022,-0.31193 -0.64972,-2.4348 z m 51.70311,0.27107 -8.24741,-2.14755 -0.003,-23.199109 -0.003,-23.199108 3.52519,-2.688796 c 1.93886,-1.478838 4.8865,-4.407586 6.55032,-6.508329 l 3.02513,-3.819532 -5.17478,-6.584775 c -2.84612,-3.621626 -4.85317,-6.90328 -4.4601,-7.292563 0.39307,-0.389283 5.51158,-0.681466 11.37446,-0.649294 13.75678,0.07549 21.90983,2.613088 29.06526,9.046429 5.86134,5.269849 7.48036,9.384088 6.89226,17.514486 C 227.10137,73.746699 220.79922,80 211.7931,80 c -3.01945,0 -4.67308,-0.385184 -4.2931,-1 0.33992,-0.55 1.91218,-1 3.49392,-1 1.58173,0 4.14268,-0.481635 5.69098,-1.070299 1.54831,-0.588664 2.82591,-0.926164 2.83913,-0.75 0.0975,1.299048 5.62902,-5.288808 6.06557,-7.223843 1.85986,-8.243902 1.66502,-10.552677 -1.2914,-15.302586 -1.60742,-2.582554 -3.30425,-4.34854 -3.77072,-3.924413 -0.46647,0.424128 -0.54684,0.244907 -0.1786,-0.398268 0.42519,-0.742629 -0.7024,-1.591494 -3.08967,-2.325956 -2.06757,-0.636101 -4.43421,-1.376414 -5.25921,-1.64514 -0.825,-0.268726 -1.5,-0.45704 -1.5,-0.418474 0,0.03856 -3.2568,-0.832388 -7.23734,-1.935451 -7.55293,-2.093024 -13.85804,-2.54894 -16.04653,-1.160308 C 185.86566,42.702161 186.57278,46 188.10699,46 c 0.49115,0 0.79741,0.3375 0.68056,0.75 -0.11685,0.4125 0.27612,1.65 0.87327,2.75 2.23314,4.113631 0.9072,7.033905 -6.06374,13.35496 -1.42839,1.295228 -2.63151,2.870228 -2.67359,3.5 -0.0421,0.629772 -0.29923,2.04504 -0.57143,3.14504 -1.98708,8.029907 -1.38601,27.5 0.84897,27.5 0.59317,0 1.61856,0.738595 2.27865,1.641322 0.92571,1.265981 2.05394,1.481148 4.93365,0.940915 3.0023,-0.563235 3.51207,-0.967194 2.60293,-2.062647 -0.9115,-1.09829 -0.68352,-1.263796 1.17659,-0.854169 1.4511,0.319556 1.86193,0.187192 1.10724,-0.356735 -0.83475,-0.601623 -0.25074,-1.284949 1.919,-2.245373 2.81765,-1.24721 3.51312,-1.171785 7.19991,0.780838 2.24455,1.188772 4.67006,2.160154 5.39002,2.158627 C 208.52898,97.00125 208.83992,97.45 208.5,98 c -0.33992,0.55 -0.14148,1.05625 0.44098,1.125 2.06226,0.243417 2.57513,0.415932 4.05902,1.36535 0.825,0.52786 2.4,0.83833 3.5,0.68994 1.61478,-0.21783 1.71666,-0.079 0.52896,0.72059 -2.24798,1.51345 -0.33284,2.59635 2.22255,1.25672 1.23667,-0.64831 3.22539,-0.98168 4.41938,-0.74082 1.28705,0.25962 2.39389,-0.14321 2.71862,-0.98943 C 227.06342,99.671153 226.12493,97 224.83399,97 c -0.52361,0 -0.67709,0.444846 -0.34107,0.988546 0.35034,0.56686 -0.0511,0.734507 -0.94098,0.393011 C 222.69837,98.054013 222,97.336022 222,96.786022 c 0,-0.55 -0.77378,-0.703071 -1.71952,-0.340158 -0.94573,0.362913 -1.411,0.351318 -1.03391,-0.02577 0.90197,-0.901971 -2.61834,-3.537048 -8.40721,-6.293094 -2.56336,-1.220397 -4.9226,-2.901552 -5.24277,-3.7359 -0.46592,-1.21417 -0.0346,-1.151553 2.16064,0.313675 1.50852,1.006868 7.35527,4.054745 12.99277,6.773059 5.6375,2.718314 10.25,5.33154 10.25,5.80717 0,1.339596 -8.86133,14.718206 -9.72983,14.689856 -0.42359,-0.0138 -5.04517,-4.28542 -10.27017,-9.49243 -8.08126,-8.053444 -9.98536,-9.468431 -12.75,-9.474867 L 195,95 l 0,10.5 c 0,5.775 -0.3375,10.4539 -0.75,10.39755 -0.4125,-0.0564 -4.46133,-1.06886 -8.99741,-2.25 z M 182,101 c 0,-0.55 -0.47656,-1 -1.05902,-1 -0.58246,0 -0.7809,0.45 -0.44098,1 0.33992,0.55 0.81648,1 1.05902,1 0.24254,0 0.44098,-0.45 0.44098,-1 z m 87.27083,6.39583 c 0.33229,-0.33229 1.19479,-0.36781 1.91667,-0.0789 0.79773,0.31922 0.56078,0.55618 -0.60417,0.60416 -1.05416,0.0434 -1.64479,-0.19292 -1.3125,-0.52522 z m -68.92575,-2.93896 c -0.32569,-0.84872 -0.3415,-1.79378 -0.0351,-2.10013 0.87571,-0.87571 2.69007,0.60965 2.69007,2.20228 0,1.91885 -1.90756,1.84546 -2.65492,-0.10215 z m -96.20696,-3.77912 c -1.59862,-1.93951 -0.68688,-5.626509 0.97933,-3.960303 0.57853,0.578536 0.90128,2.078041 0.71721,3.332233 -0.30445,2.07452 -0.45759,2.13121 -1.69654,0.62807 z m 152.63722,-2.119282 c -1.28027,-0.664212 -2.99097,-0.999984 -3.80155,-0.746159 -0.81059,0.253825 -1.17664,0.140245 -0.81346,-0.2524 0.36318,-0.392646 -0.64358,-1.959989 -2.23725,-3.482986 -1.59367,-1.522997 -2.60332,-3.063348 -2.24367,-3.423004 C 248.03907,90.294264 247.80833,90 247.16667,90 c -1.54068,0 -1.55541,-10.391711 -0.0189,-13.315741 1.97599,-3.760329 6.53663,-7.503115 10.46401,-8.587517 2.07666,-0.573393 3.95897,-0.859306 4.18291,-0.635362 0.22395,0.223943 -1.41452,0.897701 -3.64103,1.497238 -4.78011,1.28715 -9.83589,6.830487 -10.76974,11.808328 -0.90104,4.802988 2.07886,11.934509 5.9811,14.313974 3.53011,2.152554 10.5971,2.538541 13.9507,0.761964 1.20134,-0.636414 3.26693,-2.323914 4.5902,-3.75 2.39694,-2.583186 2.40031,-2.583658 0.90022,-0.126309 -3.37229,5.524272 -11.58184,8.900055 -16.03082,6.591893 z M 72.6201,97.233094 C 72.199016,95.986296 67.394227,90.521488 61.94279,85.089076 51.650983,74.833186 49.059234,70.83848 51.100949,68.378363 c 1.706648,-2.056384 4.287769,-1.674222 7.253028,1.073888 2.655433,2.460972 3.017135,3.659069 2.671307,8.848392 -0.132341,1.985847 0.927825,4.070283 3.644037,7.164687 8.42934,9.602999 9.398608,10.934834 9.064118,12.454668 -0.25476,1.157561 -0.552431,0.973905 -1.113339,-0.686904 z m 113.65073,1.162739 c 0.33229,-0.332291 1.19479,-0.367818 1.91667,-0.07895 0.79773,0.319226 0.56078,0.556183 -0.60417,0.604167 -1.05416,0.04342 -1.64479,-0.192928 -1.3125,-0.52522 z M 138.42537,92 c 0.36928,-2.475 1.42396,-7.65 2.34375,-11.5 1.25393,-5.248666 1.75984,-6.301441 2.02209,-4.207893 0.56903,4.542533 -1.74932,17.08501 -3.45797,18.707893 -1.43117,1.359326 -1.51631,1.077977 -0.90787,-3 z m 123.49837,-0.75 c 0.54676,-0.9625 2.81259,-3.738859 5.03519,-6.169686 L 271,80.660628 l 0,3.246609 c 0,2.255024 -0.89277,4.13938 -2.92308,6.169686 -3.30668,3.306679 -7.85811,4.17439 -6.15318,1.173077 z M 78.852484,72.5 c -0.579769,-17.99277 -0.504929,-19.15397 1.411754,-21.904424 1.6208,-2.32586 1.79607,-3.26936 0.87987,-4.736431 C 79.486961,43.205631 79.546426,43.12335 84.725795,40.903213 94.077793,36.894479 108.65332,34.917312 113.5,37 c 2.17521,0.93472 2.85372,0.819083 -9,1.533869 -8.037014,0.484637 -22.366738,6.254702 -21.005041,8.457975 0.260116,0.420877 -0.282878,2.2803 -1.206653,4.132053 -1.312967,2.631904 -1.804451,7.406062 -2.251596,21.871463 L 79.464707,91.5 78.852484,72.5 z m 37.913296,7.58401 C 118.56195,78.387805 119.76484,77 119.43885,77 c -0.32598,0 0.83112,-1.423819 2.57135,-3.164043 2.98882,-2.988824 5.50753,-7.431377 5.15128,-9.085957 -0.24788,-1.151276 1.63413,-0.889729 2.38922,0.332035 1.10034,1.780393 -6.54841,11.830389 -11.46927,15.069912 L 113.5,83.168021 116.76578,80.08401 z M 133,80.81495 c 0,-0.743444 -1.05575,-2.018444 -2.34611,-2.833333 L 128.30778,76.5 l 1.94147,-4.381911 1.94147,-4.381911 2.56156,2.561561 c 2.3201,2.320091 2.47607,2.961234 1.65464,6.801386 C 135.56266,81.046 133,83.841019 133,80.81495 z m 36,-2.243521 c 0,-0.785715 -0.72857,-2.157143 -1.61905,-3.047619 -0.89047,-0.890477 -1.45297,-1.732712 -1.25,-1.871634 0.20298,-0.138922 1.86608,-1.467494 3.69578,-2.952381 3.35433,-2.722198 6.76553,-3.892055 4.37327,-1.499795 -0.66,0.66 -1.2,3.36 -1.2,6 0,4.133333 -0.27778,4.8 -2,4.8 -1.1,0 -2,-0.642857 -2,-1.428571 z m 83,0.6618 c 0,-0.556414 0.87668,-2.074014 1.94818,-3.372445 1.93424,-2.343889 1.9442,-2.344916 1.39194,-0.143543 C 254.74598,78.085526 252,80.97609 252,79.233229 z m -57.24139,-5.947473 c -3.07388,-3.396592 -4.07365,-16.39929 -1.46176,-19.011176 1.56436,-1.564361 1.64663,-1.041961 1.26397,8.026075 L 194.15151,72 l 5.17425,0.118483 c 2.84583,0.06517 5.84924,0.05396 6.67424,-0.0249 3.22245,-0.308023 -1.46391,1.675269 -5.54657,2.347341 -3.21317,0.528939 -4.38603,0.291029 -5.69482,-1.15517 z M 209.25327,70.25 c 0.85978,-0.9625 2.24486,-3.325 3.07795,-5.25 l 1.5147,-3.5 -0.29424,3.271067 c -0.16923,1.88138 -1.26361,4.1118 -2.57597,5.25 -2.82347,2.448781 -3.82421,2.581792 -1.72244,0.228933 z M 104.5,68.839317 c 4.93083,-2.711626 6.86971,-8.411464 4.41898,-12.990705 -0.59456,-1.110948 -0.82547,-2.275457 -0.51313,-2.587799 1.06297,-1.062966 3.41448,6.228252 2.89132,8.964979 -0.61137,3.198177 -4.86858,7.787424 -7.18353,7.743799 -1.26269,-0.02379 -1.17866,-0.269618 0.38636,-1.130274 z m 30.67431,-5.153768 C 133.97844,62.412601 133,61.030458 133,60.61412 c 0,-0.785879 1.50756,0.631114 3.87244,3.639806 1.98427,2.524458 0.85114,2.145188 -1.69813,-0.568377 z M 71.022236,63.25 C 71.034466,62.8375 71.924459,61.375 73,60 74.828653,57.662201 74.956971,57.633005 74.977764,59.55 75.000097,61.60895 73.292638,64 71.8,64 71.36,64 71.010006,63.6625 71.022236,63.25 z M 205.25,62.439005 C 204.5625,61.693979 204,60.667904 204,60.158838 204,59.649771 203.1,58.997907 202,58.710251 199.16718,57.969451 199.51376,56 202.47695,56 c 2.95367,0 6.11647,4.134021 4.85283,6.343031 -0.6966,1.217749 -1.03041,1.233153 -2.07978,0.09597 z M 104.116,60.45 c -0.0638,-1.1275 -0.656,-2.59 -1.316,-3.25 -0.93333,-0.933333 -0.92636,-1.2 0.0314,-1.2 1.5529,0 2.48114,2.329844 1.86919,4.691587 -0.40425,1.560169 -0.48449,1.527006 -0.58457,-0.241587 z"
       id="path3165"
       style="fill:#31175b" />
  </g>
</svg>
