<?xml version="1.0" encoding="UTF-8" standalone="no"?>
<!DOCTYPE svg PUBLIC "-//W3C//DTD SVG 1.1//EN" "http://www.w3.org/Graphics/SVG/1.1/DTD/svg11.dtd">
<svg width="100%" height="100%" viewBox="0 0 254 253" version="1.1" xmlns="http://www.w3.org/2000/svg" xmlns:xlink="http://www.w3.org/1999/xlink" xml:space="preserve" xmlns:serif="http://www.serif.com/" style="fill-rule:evenodd;clip-rule:evenodd;stroke-linejoin:round;stroke-miterlimit:2;">
    <g transform="matrix(1,0,0,1,-1678,-2245)">
        <g transform="matrix(4.16667,0,0,4.16667,0,0)">
            <path d="M454.773,588.93C452.865,588.909 451.276,590.39 451.166,592.294C451.024,594.731 448.536,596.311 446.272,595.404C444.5,594.695 442.483,595.502 441.692,597.239C440.681,599.458 437.79,600.034 436.005,598.369C434.609,597.068 432.439,597.093 431.073,598.426C429.327,600.131 426.424,599.622 425.361,597.426C424.53,595.708 422.496,594.948 420.741,595.698C418.498,596.657 415.975,595.134 415.776,592.701C415.622,590.8 414,589.355 412.093,589.421C409.654,589.504 407.852,587.173 408.546,584.834C409.089,583.004 408.099,581.072 406.297,580.444C403.992,579.641 403.153,576.816 404.646,574.885C405.813,573.375 405.587,571.215 404.134,569.979C402.275,568.398 402.514,565.46 404.603,564.2C406.236,563.213 406.807,561.117 405.898,559.44C404.735,557.294 406.02,554.641 408.423,554.22C410.302,553.891 411.591,552.142 411.35,550.249C411.041,547.829 413.196,545.819 415.59,546.294C417.461,546.666 419.295,545.501 419.753,543.65C420.34,541.281 423.076,540.185 425.136,541.492C426.747,542.515 428.877,542.092 429.974,540.531C431.377,538.534 434.324,538.5 435.773,540.464C436.904,541.999 439.044,542.374 440.631,541.315C442.66,539.959 445.421,540.992 446.062,543.347C446.564,545.188 448.423,546.31 450.285,545.895C452.667,545.365 454.867,547.325 454.615,549.752C454.417,551.65 455.746,553.367 457.633,553.654C460.045,554.02 461.39,556.643 460.277,558.815C459.407,560.513 460.025,562.595 461.682,563.543C463.799,564.755 464.105,567.687 462.282,569.31C460.858,570.579 460.683,572.744 461.884,574.227C463.421,576.122 462.647,578.966 460.361,579.822C458.574,580.492 457.629,582.447 458.214,584.263C458.962,586.585 457.213,588.957 454.773,588.93Z" style="fill:rgb(75,91,169);fill-rule:nonzero;"/>
            <path d="M434.176,560.535L434.176,554.862C434.176,554.517 433.897,554.237 433.551,554.237L430.198,554.237C429.882,554.237 429.611,554.47 429.575,554.784C429.44,555.628 427.663,559.873 425.404,560.852C424.939,561.067 424.499,561.155 424.053,561.173C423.718,561.187 423.454,561.461 423.454,561.796L423.454,566.117C423.454,566.462 423.734,566.742 424.08,566.742L426.117,566.742C426.461,566.742 426.74,567.023 426.743,567.367C426.792,574.812 426.794,579.333 426.797,579.363C427.22,582.763 429.01,584.802 432.177,585.571C433.456,585.926 434.839,586.083 436.228,586.083C437.867,586.034 439.468,585.772 441.065,585.298C441.329,585.22 441.509,584.973 441.509,584.698L441.509,579.431C441.509,579.013 441.106,578.714 440.705,578.831C439.996,579.039 439.339,579.228 438.739,579.413C437.151,579.877 435.817,579.57 434.735,578.544C434.634,578.387 434.482,578.181 434.429,577.976C434.277,577.156 434.182,576.285 434.182,575.466L434.182,567.367C434.182,567.022 434.462,566.742 434.807,566.742L440.678,566.742C441.023,566.742 441.304,566.462 441.304,566.117L441.304,561.785C441.304,561.441 441.023,561.16 440.678,561.16L434.802,561.16C434.456,561.16 434.176,560.88 434.176,560.535Z" style="fill:white;fill-rule:nonzero;"/>
        </g>
    </g>
</svg>
