<?xml version="1.0" encoding="UTF-8" standalone="no"?>
<!DOCTYPE svg PUBLIC "-//W3C//DTD SVG 1.1//EN" "http://www.w3.org/Graphics/SVG/1.1/DTD/svg11.dtd">
<svg width="100%" height="100%" viewBox="0 0 254 253" version="1.1" xmlns="http://www.w3.org/2000/svg" xmlns:xlink="http://www.w3.org/1999/xlink" xml:space="preserve" xmlns:serif="http://www.serif.com/" style="fill-rule:evenodd;clip-rule:evenodd;stroke-linejoin:round;stroke-miterlimit:2;">
    <g transform="matrix(1,0,0,1,-997,-1707)">
        <g transform="matrix(4.16667,0,0,4.16667,0,0)">
            <path d="M291.373,459.73C289.465,459.708 287.877,461.19 287.766,463.095C287.624,465.531 285.137,467.111 282.871,466.203C281.1,465.494 279.084,466.302 278.292,468.038C277.28,470.259 274.39,470.833 272.606,469.169C271.21,467.868 269.038,467.893 267.673,469.226C265.927,470.931 263.024,470.423 261.961,468.226C261.13,466.509 259.096,465.747 257.342,466.497C255.098,467.456 252.574,465.934 252.377,463.501C252.222,461.6 250.601,460.156 248.693,460.221C246.255,460.304 244.451,457.973 245.146,455.634C245.689,453.805 244.698,451.871 242.897,451.243C240.592,450.441 239.753,447.616 241.245,445.685C242.413,444.176 242.188,442.016 240.734,440.78C238.875,439.199 239.113,436.26 241.202,434.999C242.836,434.014 243.406,431.918 242.498,430.24C241.336,428.094 242.619,425.441 245.023,425.02C246.902,424.691 248.19,422.943 247.949,421.049C247.642,418.629 249.796,416.618 252.19,417.094C254.062,417.466 255.895,416.301 256.354,414.45C256.94,412.08 259.676,410.985 261.736,412.292C263.347,413.316 265.477,412.892 266.574,411.33C267.977,409.334 270.924,409.3 272.372,411.264C273.505,412.799 275.645,413.174 277.231,412.115C279.26,410.759 282.021,411.792 282.662,414.147C283.163,415.988 285.023,417.11 286.885,416.695C289.267,416.164 291.468,418.125 291.215,420.552C291.018,422.45 292.346,424.168 294.232,424.453C296.646,424.82 297.989,427.443 296.877,429.615C296.007,431.313 296.625,433.395 298.281,434.343C300.398,435.556 300.704,438.487 298.883,440.111C297.458,441.379 297.282,443.544 298.484,445.027C300.021,446.922 299.246,449.766 296.962,450.622C295.175,451.291 294.229,453.246 294.814,455.063C295.562,457.385 293.813,459.757 291.373,459.73Z" style="fill:rgb(75,91,169);fill-rule:nonzero;"/>
            <path d="M285.466,429.435C284.455,429.892 283.343,430.169 282.252,430.353C282.77,430.266 283.533,429.328 283.838,428.95C284.304,428.37 284.69,427.712 284.908,427C284.936,426.945 284.957,426.875 284.901,426.833C284.832,426.805 284.786,426.82 284.732,426.847C283.514,427.499 282.254,427.973 280.914,428.308C280.803,428.335 280.721,428.308 280.651,428.239C280.54,428.113 280.436,427.994 280.317,427.897C279.754,427.417 279.149,427.041 278.469,426.764C277.573,426.4 276.596,426.244 275.633,426.307C274.695,426.368 273.774,426.632 272.942,427.068C272.108,427.503 271.364,428.109 270.772,428.84C270.159,429.596 269.707,430.49 269.476,431.436C269.252,432.35 269.271,433.253 269.406,434.177C269.428,434.33 269.414,434.351 269.275,434.33C264.032,433.55 259.687,431.674 256.159,427.655C256.006,427.48 255.923,427.48 255.797,427.667C254.254,429.982 255.003,433.7 256.931,435.526C257.189,435.77 257.452,436.013 257.737,436.236C257.633,436.256 256.35,436.117 255.206,435.526C255.053,435.429 254.977,435.485 254.963,435.659C254.948,435.909 254.97,436.138 255.004,436.409C255.301,438.755 256.924,440.925 259.148,441.772C259.413,441.882 259.704,441.98 259.989,442.029C259.483,442.14 258.961,442.219 257.508,442.105C257.327,442.071 257.258,442.16 257.327,442.334C258.419,445.312 260.777,446.198 262.543,446.702C262.779,446.743 263.016,446.743 263.253,446.799C263.238,446.821 263.224,446.821 263.211,446.841C262.625,447.734 260.595,448.399 259.648,448.729C257.928,449.329 256.057,449.6 254.239,449.421C253.948,449.378 253.887,449.381 253.809,449.421C253.729,449.47 253.798,449.539 253.892,449.616C254.261,449.859 254.636,450.075 255.019,450.284C256.173,450.895 257.376,451.382 258.635,451.73C265.133,453.525 272.453,452.205 277.332,447.358C281.164,443.55 282.507,438.3 282.507,433.043C282.507,432.837 282.75,432.724 282.895,432.616C283.892,431.867 284.684,430.97 285.428,429.969C285.595,429.744 285.585,429.544 285.585,429.462L285.585,429.435C285.585,429.351 285.595,429.375 285.466,429.435Z" style="fill:white;fill-rule:nonzero;"/>
            <path d="M263.221,452.383C265.916,452.383 263.35,452.383 263.221,452.383C263.575,452.383 263.206,452.383 263.221,452.383Z" style="fill:white;"/>
            <path d="M263.221,452.383C263.179,452.387 262.695,452.383 263.221,452.383C263.221,452.383 263.137,452.383 263.221,452.383Z" style="fill:white;"/>
            <path d="M264.292,452.411C264.292,452.358 264.856,452.411 264.292,452.411C264.292,452.383 264.361,452.411 264.292,452.411Z" style="fill:white;"/>
            <path d="M275.543,426.332C275.509,426.361 275.46,426.361 275.412,426.332L275.543,426.332Z" style="fill:white;"/>
        </g>
    </g>
</svg>
